<svg width="70" height="70" viewBox="0 0 70 70" fill="none" xmlns="http://www.w3.org/2000/svg">
<circle cx="35.0016" cy="35.0003" r="28.9" fill="#A6ACBE"/>
<path d="M34.9233 34.8972C33.6565 34.8972 32.4403 34.6439 31.3255 34.0865C28.3357 32.7183 26.4102 29.6779 26.4102 26.3841C26.4102 21.7221 30.2107 17.9216 34.9233 17.9216C39.6359 17.9216 43.4364 21.7221 43.4364 26.3841C43.4364 29.6779 41.5108 32.6676 38.5211 34.0865C37.4063 34.6439 36.1901 34.8972 34.9233 34.8972Z" fill="white"/>
<path d="M35.6818 51.4645C35.5805 51.4645 35.4285 51.4645 35.3271 51.4645H34.6177C31.1212 51.4645 28.1315 51.4645 25.8512 50.6537C23.2668 49.7416 22 47.7654 22 44.725C22 39.3536 25.9019 34.5903 31.4759 33.1207L31.6786 33.0701L31.8306 33.1714C33.8069 34.0835 36.1886 34.0835 38.1648 33.1714L38.3168 33.0701L38.5195 33.1207C44.0936 34.5903 47.9955 39.3536 47.9955 44.725C47.9955 47.816 46.7286 49.7416 44.1443 50.6537C41.864 51.4645 38.9756 51.4645 35.6818 51.4645Z" fill="white"/>
<circle cx="35" cy="35" r="34" stroke="#A6ACBE" stroke-width="0.5"/>
</svg>
