<svg width="250" height="1080" viewBox="0 0 250 1080" fill="none" xmlns="http://www.w3.org/2000/svg">
<rect width="250" height="1080" fill="url(#paint0_linear_380_2587)"/>
<path d="M52.4215 164.563H54.1335V166.707C54.1335 167.625 54.0535 168.521 53.8935 169.395C53.7335 170.259 53.4828 171.065 53.1415 171.811C52.8108 172.558 52.3895 173.225 51.8775 173.811C51.3655 174.387 50.7628 174.846 50.0695 175.187L48.7895 173.475C49.4188 173.187 49.9575 172.803 50.4055 172.323C50.8642 171.843 51.2428 171.299 51.5415 170.691C51.8402 170.083 52.0588 169.443 52.1975 168.771C52.3468 168.089 52.4215 167.401 52.4215 166.707V164.563ZM52.8375 164.563H54.5495V166.707C54.5495 167.379 54.6135 168.041 54.7415 168.691C54.8802 169.342 55.0882 169.961 55.3655 170.547C55.6535 171.123 56.0108 171.641 56.4375 172.099C56.8642 172.558 57.3762 172.937 57.9735 173.235L56.6775 174.931C56.0162 174.59 55.4402 174.142 54.9495 173.587C54.4695 173.022 54.0748 172.377 53.7655 171.651C53.4562 170.915 53.2215 170.131 53.0615 169.299C52.9122 168.457 52.8375 167.593 52.8375 166.707V164.563ZM58.5495 163.427H60.6935V178.243H58.5495V163.427ZM60.2295 169.123H62.8375V170.883H60.2295V169.123ZM71.3003 166.691H75.0123V168.403H71.3003V166.691ZM67.8923 164.035C68.6389 164.035 69.3056 164.19 69.8923 164.499C70.4896 164.798 70.9589 165.214 71.3003 165.747C71.6416 166.27 71.8123 166.878 71.8123 167.571C71.8123 168.254 71.6416 168.862 71.3003 169.395C70.9589 169.929 70.4896 170.35 69.8923 170.659C69.3056 170.958 68.6389 171.107 67.8923 171.107C67.1563 171.107 66.4896 170.958 65.8923 170.659C65.3056 170.35 64.8416 169.929 64.5003 169.395C64.1589 168.862 63.9883 168.254 63.9883 167.571C63.9883 166.878 64.1589 166.27 64.5003 165.747C64.8416 165.214 65.3056 164.798 65.8923 164.499C66.4896 164.19 67.1563 164.035 67.8923 164.035ZM67.8923 165.795C67.5296 165.795 67.2043 165.865 66.9163 166.003C66.6389 166.142 66.4203 166.345 66.2603 166.611C66.1003 166.878 66.0203 167.198 66.0203 167.571C66.0203 167.934 66.1003 168.249 66.2603 168.515C66.4203 168.782 66.6389 168.985 66.9163 169.123C67.2043 169.262 67.5296 169.331 67.8923 169.331C68.2549 169.331 68.5749 169.262 68.8523 169.123C69.1403 168.985 69.3643 168.782 69.5243 168.515C69.6843 168.249 69.7643 167.934 69.7643 167.571C69.7643 167.198 69.6843 166.878 69.5243 166.611C69.3643 166.345 69.1403 166.142 68.8523 166.003C68.5749 165.865 68.2549 165.795 67.8923 165.795ZM74.0683 163.427H76.2123V171.379H74.0683V163.427ZM66.3723 172.035H68.4843V173.427H74.1003V172.035H76.2123V178.083H66.3723V172.035ZM68.4843 175.059V176.387H74.1003V175.059H68.4843ZM89.0453 172.643C90.1119 172.643 91.0399 172.755 91.8293 172.979C92.6186 173.203 93.2266 173.523 93.6533 173.939C94.0906 174.355 94.3093 174.857 94.3093 175.443C94.3093 176.019 94.0906 176.515 93.6533 176.931C93.2266 177.358 92.6186 177.683 91.8293 177.907C91.0399 178.131 90.1119 178.243 89.0453 178.243C87.9893 178.243 87.0666 178.131 86.2773 177.907C85.4879 177.683 84.8746 177.358 84.4373 176.931C84.0106 176.515 83.7973 176.019 83.7973 175.443C83.7973 174.857 84.0106 174.355 84.4373 173.939C84.8746 173.523 85.4879 173.203 86.2773 172.979C87.0666 172.755 87.9893 172.643 89.0453 172.643ZM89.0453 174.243C88.3839 174.243 87.8186 174.286 87.3493 174.371C86.8799 174.457 86.5226 174.59 86.2773 174.771C86.0426 174.953 85.9253 175.177 85.9253 175.443C85.9253 175.71 86.0426 175.934 86.2773 176.115C86.5226 176.286 86.8799 176.419 87.3493 176.515C87.8186 176.601 88.3839 176.643 89.0453 176.643C89.7173 176.643 90.2879 176.601 90.7573 176.515C91.2266 176.419 91.5839 176.286 91.8293 176.115C92.0746 175.934 92.1973 175.71 92.1973 175.443C92.1973 175.177 92.0746 174.953 91.8293 174.771C91.5839 174.59 91.2266 174.457 90.7573 174.371C90.2879 174.286 89.7173 174.243 89.0453 174.243ZM83.9573 164.083H93.3493V165.747H83.9573V164.083ZM82.4693 170.035H95.7973V171.715H82.4693V170.035ZM87.3973 167.443H89.5253V170.451H87.3973V167.443ZM92.1013 164.083H94.2293V165.299C94.2293 165.886 94.2133 166.499 94.1813 167.139C94.1493 167.779 94.0266 168.483 93.8133 169.251L91.7013 169.043C91.9039 168.286 92.0213 167.614 92.0533 167.027C92.0853 166.441 92.1013 165.865 92.1013 165.299V164.083ZM98.532 164.675H107.908V166.371H98.532V164.675ZM97.156 174.723H110.564V176.451H97.156V174.723ZM101.892 169.635H104.036V175.587H101.892V169.635ZM107.14 164.675H109.284V166.083C109.284 166.702 109.273 167.358 109.252 168.051C109.241 168.745 109.193 169.513 109.108 170.355C109.033 171.198 108.895 172.142 108.692 173.187L106.564 172.963C106.863 171.481 107.033 170.19 107.076 169.091C107.119 167.982 107.14 166.979 107.14 166.083V164.675Z" fill="#8DA4BF"/>
<path d="M29.7258 169.468C29.7258 167.286 31.7348 166.235 32.7393 165.983V165.225C32.7379 165.023 32.8256 164.619 33.1872 164.619H33.3379C33.4913 164.619 33.7973 164.74 33.794 165.225V165.983C34.7483 166.235 36.6569 167.286 36.6569 169.468C36.6569 171.65 37.3601 172.903 37.7117 173.256C38.7966 174.59 37.7619 175.024 37.109 175.075L29.2737 174.923C27.7067 174.923 28.219 173.812 28.671 173.256C29.534 172.195 29.7216 170.377 29.7258 169.468Z" fill="#8DA4BF"/>
<path d="M35.0223 175.561H31.375C31.375 176.047 31.7251 177.02 33.1257 177.02C34.5263 177.02 34.9737 176.047 35.0223 175.561Z" fill="#8DA4BF"/>
<path d="M220.822 166.431L225.946 171.038L220.822 175.645" stroke="#8DA4BF" stroke-width="1.4" stroke-linecap="round" stroke-linejoin="round"/>
<path d="M49.0112 207.499H55.3472V209.195H49.0112V207.499ZM50.8352 210.955H52.9312V214.651H50.8352V210.955ZM54.5152 207.499H56.6112V208.427C56.6112 208.95 56.5952 209.574 56.5632 210.299C56.5419 211.014 56.4406 211.841 56.2592 212.779L54.1952 212.539C54.3552 211.633 54.4459 210.849 54.4672 210.187C54.4992 209.526 54.5152 208.939 54.5152 208.427V207.499ZM58.0352 206.411H60.1792V217.499H58.0352V206.411ZM59.3312 210.939H61.9552V212.683H59.3312V210.939ZM50.2912 219.275H60.6592V220.987H50.2912V219.275ZM50.2912 216.523H52.4352V219.803H50.2912V216.523ZM48.3232 215.531L48.1312 213.835C48.9846 213.835 49.9286 213.83 50.9632 213.819C51.9979 213.798 53.0539 213.755 54.1312 213.691C55.2086 213.617 56.2432 213.51 57.2352 213.371L57.3792 214.891C56.3552 215.073 55.3099 215.211 54.2432 215.307C53.1766 215.393 52.1366 215.451 51.1232 215.483C50.1099 215.505 49.1766 215.521 48.3232 215.531ZM73.25 206.427H75.378V214.795H73.25V206.427ZM65.522 215.467H75.378V221.083H65.522V215.467ZM73.298 217.147H67.618V219.403H73.298V217.147ZM66.546 206.971H68.306V208.379C68.306 209.297 68.1513 210.171 67.842 211.003C67.5326 211.835 67.0633 212.561 66.434 213.179C65.8046 213.787 64.9993 214.241 64.018 214.539L62.994 212.875C63.6126 212.683 64.146 212.427 64.594 212.107C65.042 211.787 65.41 211.43 65.698 211.035C65.986 210.63 66.1993 210.203 66.338 209.755C66.4766 209.297 66.546 208.838 66.546 208.379V206.971ZM66.978 206.971H68.706V208.379C68.706 208.838 68.7753 209.281 68.914 209.707C69.0526 210.134 69.2606 210.539 69.538 210.923C69.8153 211.297 70.1673 211.627 70.594 211.915C71.0313 212.203 71.554 212.438 72.162 212.619L71.138 214.267C70.4233 214.065 69.8046 213.771 69.282 213.387C68.77 213.003 68.338 212.555 67.986 212.043C67.6446 211.521 67.3886 210.95 67.218 210.331C67.058 209.713 66.978 209.062 66.978 208.379V206.971ZM82.115 207.931H87.955V217.531H82.115V207.931ZM85.987 209.595H84.099V215.883H85.987V209.595ZM92.387 206.411H94.419V221.227H92.387V206.411ZM86.883 211.803H90.211V213.515H86.883V211.803ZM89.379 206.651H91.363V220.571H89.379V206.651ZM98.0337 211.083H108.322V212.779H98.0337V211.083ZM98.0337 207.083H100.162V211.835H98.0337V207.083ZM96.4177 214.395H109.826V216.107H96.4177V214.395ZM99.4577 215.003H101.586V221.243H99.4577V215.003ZM104.642 215.003H106.754V221.243H104.642V215.003Z" fill="#8DA4BF"/>
<path d="M29.6406 219.75L30.6563 215.359L27.25 212.406L31.75 212.016L33.5 207.875L35.25 212.016L39.75 212.406L36.3438 215.359L37.3594 219.75L33.5 217.422L29.6406 219.75Z" fill="#8DA4BF"/>
<path d="M220.822 211.757L225.946 216.364L220.822 220.971" stroke="#8DA4BF" stroke-width="1.4" stroke-linecap="round" stroke-linejoin="round"/>
<path d="M56.0192 253.907H58.8672V255.619H56.0192V253.907ZM53.9232 250.531H56.1152C56.1152 251.929 55.9019 253.171 55.4752 254.259C55.0486 255.347 54.3446 256.297 53.3632 257.107C52.3819 257.907 51.0592 258.574 49.3952 259.107L48.5632 257.459C49.6086 257.129 50.4779 256.755 51.1712 256.339C51.8646 255.923 52.4086 255.465 52.8032 254.963C53.2086 254.451 53.4966 253.902 53.6672 253.315C53.8379 252.718 53.9232 252.078 53.9232 251.395V250.531ZM49.3472 250.531H55.2992V252.243H49.3472V250.531ZM54.1632 253.427V254.883L48.8832 255.267L48.5952 253.619L54.1632 253.427ZM58.6112 249.411H60.7552V260.355H58.6112V249.411ZM51.0592 262.275H61.1392V263.987H51.0592V262.275ZM51.0592 259.299H53.2032V263.395H51.0592V259.299ZM63.074 260.771H76.498V262.499H63.074V260.771ZM68.642 257.475H70.77V261.235H68.642V257.475ZM68.578 250.243H70.434V251.315C70.434 251.945 70.3433 252.553 70.162 253.139C69.9913 253.726 69.73 254.281 69.378 254.803C69.0366 255.326 68.6153 255.801 68.114 256.227C67.6126 256.643 67.0366 257.001 66.386 257.299C65.746 257.598 65.0366 257.817 64.258 257.955L63.378 256.179C64.0606 256.073 64.674 255.902 65.218 255.667C65.762 255.433 66.242 255.155 66.658 254.835C67.0846 254.505 67.4366 254.147 67.714 253.763C68.002 253.369 68.2153 252.963 68.354 252.547C68.5033 252.131 68.578 251.721 68.578 251.315V250.243ZM68.978 250.243H70.85V251.315C70.85 251.731 70.9193 252.147 71.058 252.563C71.2073 252.979 71.4206 253.379 71.698 253.763C71.986 254.147 72.338 254.505 72.754 254.835C73.17 255.155 73.65 255.433 74.194 255.667C74.7486 255.902 75.362 256.073 76.034 256.179L75.154 257.955C74.3753 257.806 73.666 257.587 73.026 257.299C72.386 257.001 71.8153 256.643 71.314 256.227C70.8126 255.811 70.386 255.347 70.034 254.835C69.6926 254.313 69.4313 253.758 69.25 253.171C69.0686 252.574 68.978 251.955 68.978 251.315V250.243ZM81.3927 250.563H83.1367V252.707C83.1367 253.667 83.0514 254.59 82.8807 255.475C82.7101 256.35 82.4487 257.171 82.0967 257.939C81.7554 258.697 81.3127 259.369 80.7687 259.955C80.2354 260.531 79.6007 260.99 78.8647 261.331L77.6007 259.571C78.2514 259.283 78.8114 258.905 79.2807 258.435C79.7607 257.955 80.1554 257.411 80.4647 256.803C80.7741 256.185 81.0034 255.529 81.1527 254.835C81.3127 254.142 81.3927 253.433 81.3927 252.707V250.563ZM81.8087 250.563H83.5367V252.707C83.5367 253.401 83.6114 254.078 83.7607 254.739C83.9101 255.401 84.1341 256.025 84.4327 256.611C84.7421 257.198 85.1261 257.721 85.5847 258.179C86.0541 258.627 86.6034 258.985 87.2327 259.251L86.0007 260.979C85.2861 260.649 84.6621 260.206 84.1287 259.651C83.6061 259.097 83.1741 258.457 82.8327 257.731C82.4914 256.995 82.2354 256.206 82.0647 255.363C81.8941 254.51 81.8087 253.625 81.8087 252.707V250.563ZM87.9527 249.395H90.0807V264.259H87.9527V249.395ZM99.7275 252.915H103.231V254.643H99.7275V252.915ZM96.6075 250.195C97.3435 250.195 98.0048 250.35 98.5915 250.659C99.1781 250.969 99.6421 251.395 99.9835 251.939C100.335 252.483 100.511 253.102 100.511 253.795C100.511 254.499 100.335 255.123 99.9835 255.667C99.6421 256.211 99.1781 256.638 98.5915 256.947C98.0048 257.257 97.3435 257.411 96.6075 257.411C95.8608 257.411 95.1888 257.257 94.5915 256.947C94.0048 256.638 93.5408 256.211 93.1995 255.667C92.8581 255.123 92.6875 254.499 92.6875 253.795C92.6875 253.102 92.8581 252.483 93.1995 251.939C93.5408 251.395 94.0048 250.969 94.5915 250.659C95.1888 250.35 95.8608 250.195 96.6075 250.195ZM96.5915 251.987C96.2288 251.987 95.9035 252.062 95.6155 252.211C95.3381 252.35 95.1195 252.558 94.9595 252.835C94.7995 253.102 94.7195 253.422 94.7195 253.795C94.7195 254.179 94.7995 254.51 94.9595 254.787C95.1195 255.065 95.3381 255.278 95.6155 255.427C95.9035 255.566 96.2288 255.635 96.5915 255.635C96.9541 255.635 97.2741 255.566 97.5515 255.427C97.8395 255.278 98.0635 255.065 98.2235 254.787C98.3835 254.51 98.4635 254.179 98.4635 253.795C98.4635 253.422 98.3835 253.102 98.2235 252.835C98.0635 252.558 97.8395 252.35 97.5515 252.211C97.2741 252.062 96.9541 251.987 96.5915 251.987ZM102.767 249.427H104.911V257.827H102.767V249.427ZM95.0235 258.467H104.911V264.083H95.0235V258.467ZM102.815 260.147H97.1195V262.403H102.815V260.147ZM121.824 249.411H123.856V264.227H121.824V249.411ZM120.048 255.075H122.512V256.771H120.048V255.075ZM118.592 249.651H120.576V263.571H118.592V249.651ZM111.552 250.931H117.392V260.531H111.552V250.931ZM115.424 252.595H113.536V258.883H115.424V252.595ZM129.455 251.907H131.199V252.451C131.199 253.326 131.045 254.153 130.735 254.931C130.426 255.699 129.962 256.371 129.343 256.947C128.725 257.513 127.93 257.934 126.959 258.211L125.983 256.563C126.581 256.382 127.098 256.153 127.535 255.875C127.983 255.587 128.346 255.257 128.623 254.883C128.911 254.51 129.119 254.121 129.247 253.715C129.386 253.299 129.455 252.878 129.455 252.451V251.907ZM129.855 251.907H131.583V252.451C131.583 252.846 131.653 253.235 131.791 253.619C131.941 254.003 132.154 254.366 132.431 254.707C132.719 255.038 133.082 255.337 133.519 255.603C133.967 255.87 134.495 256.078 135.103 256.227L134.127 257.907C133.178 257.651 132.383 257.257 131.743 256.723C131.114 256.179 130.639 255.539 130.319 254.803C130.01 254.067 129.855 253.283 129.855 252.451V251.907ZM126.479 250.963H134.575V252.627H126.479V250.963ZM129.455 249.443H131.599V251.715H129.455V249.443ZM136.031 249.427H138.159V258.355H136.031V249.427ZM133.151 258.611C134.197 258.611 135.098 258.723 135.855 258.947C136.613 259.171 137.194 259.491 137.599 259.907C138.015 260.323 138.223 260.83 138.223 261.427C138.223 262.323 137.77 263.017 136.863 263.507C135.957 263.998 134.719 264.243 133.151 264.243C131.583 264.243 130.346 263.998 129.439 263.507C128.533 263.017 128.079 262.323 128.079 261.427C128.079 260.542 128.533 259.854 129.439 259.363C130.346 258.862 131.583 258.611 133.151 258.611ZM133.151 260.227C132.511 260.227 131.967 260.27 131.519 260.355C131.082 260.441 130.751 260.574 130.527 260.755C130.314 260.937 130.207 261.161 130.207 261.427C130.207 261.822 130.453 262.121 130.943 262.323C131.445 262.515 132.181 262.611 133.151 262.611C134.111 262.611 134.842 262.515 135.343 262.323C135.845 262.121 136.095 261.822 136.095 261.427C136.095 261.161 135.983 260.937 135.759 260.755C135.535 260.574 135.205 260.441 134.767 260.355C134.341 260.27 133.802 260.227 133.151 260.227Z" fill="#8DA4BF"/>
<path d="M38 257.667V261.667C38 262.02 37.8595 262.359 37.6095 262.609C37.3594 262.86 37.0203 263 36.6667 263H29.3333C28.9797 263 28.6406 262.86 28.3905 262.609C28.1405 262.359 28 262.02 28 261.667V254.333C28 253.98 28.1405 253.641 28.3905 253.391C28.6406 253.14 28.9797 253 29.3333 253H33.3333M36 251H40M40 251V255M40 251L32.6667 258.333" stroke="#8DA4BF" stroke-width="1.5" stroke-linecap="round" stroke-linejoin="round"/>
<path d="M220.822 254.757L225.946 259.364L220.822 263.971" stroke="#8DA4BF" stroke-width="1.4" stroke-linecap="round" stroke-linejoin="round"/>
<path d="M51.6832 293.563H53.3952V295.707C53.3952 296.625 53.3152 297.521 53.1552 298.395C52.9952 299.259 52.7446 300.065 52.4032 300.811C52.0726 301.558 51.6512 302.225 51.1392 302.811C50.6272 303.387 50.0246 303.846 49.3312 304.187L48.0512 302.475C48.6806 302.187 49.2192 301.803 49.6672 301.323C50.1259 300.843 50.5046 300.299 50.8032 299.691C51.1019 299.083 51.3206 298.443 51.4592 297.771C51.6086 297.089 51.6832 296.401 51.6832 295.707V293.563ZM52.0992 293.563H53.8112V295.707C53.8112 296.379 53.8752 297.041 54.0032 297.691C54.1419 298.342 54.3499 298.961 54.6272 299.547C54.9152 300.123 55.2726 300.641 55.6992 301.099C56.1259 301.558 56.6379 301.937 57.2352 302.235L55.9392 303.931C55.2779 303.59 54.7019 303.142 54.2112 302.587C53.7312 302.022 53.3366 301.377 53.0272 300.651C52.7179 299.915 52.4832 299.131 52.3232 298.299C52.1739 297.457 52.0992 296.593 52.0992 295.707V293.563ZM57.8112 292.427H59.9552V307.243H57.8112V292.427ZM59.4912 298.123H62.0992V299.883H59.4912V298.123ZM66.082 297.371H68.194V300.091H66.082V297.371ZM71.282 297.371H73.41V300.091H71.282V297.371ZM63.058 299.451H76.466V301.115H63.058V299.451ZM69.73 301.867C71.33 301.867 72.5886 302.102 73.506 302.571C74.4233 303.03 74.882 303.691 74.882 304.555C74.882 305.409 74.4233 306.07 73.506 306.539C72.5886 307.009 71.33 307.243 69.73 307.243C68.13 307.243 66.8713 307.009 65.954 306.539C65.0473 306.07 64.594 305.409 64.594 304.555C64.594 303.691 65.0473 303.03 65.954 302.571C66.8713 302.102 68.13 301.867 69.73 301.867ZM69.73 303.467C69.0686 303.467 68.514 303.51 68.066 303.595C67.6286 303.67 67.298 303.787 67.074 303.947C66.85 304.107 66.738 304.31 66.738 304.555C66.738 304.801 66.85 305.009 67.074 305.179C67.298 305.339 67.6286 305.457 68.066 305.531C68.514 305.606 69.0686 305.643 69.73 305.643C70.3913 305.643 70.9406 305.606 71.378 305.531C71.826 305.457 72.162 305.339 72.386 305.179C72.61 305.009 72.722 304.801 72.722 304.555C72.722 304.31 72.61 304.107 72.386 303.947C72.162 303.787 71.826 303.67 71.378 303.595C70.9406 303.51 70.3913 303.467 69.73 303.467ZM69.762 292.635C70.8606 292.635 71.81 292.753 72.61 292.987C73.4206 293.211 74.0446 293.537 74.482 293.963C74.9193 294.39 75.138 294.897 75.138 295.483C75.138 296.07 74.9193 296.577 74.482 297.003C74.0446 297.419 73.4206 297.745 72.61 297.979C71.81 298.203 70.8606 298.315 69.762 298.315C68.6846 298.315 67.7406 298.203 66.93 297.979C66.1193 297.745 65.4953 297.419 65.058 297.003C64.6206 296.577 64.402 296.07 64.402 295.483C64.402 294.897 64.6206 294.39 65.058 293.963C65.4953 293.537 66.1193 293.211 66.93 292.987C67.7406 292.753 68.6846 292.635 69.762 292.635ZM69.762 294.251C69.1006 294.251 68.53 294.299 68.05 294.395C67.57 294.481 67.2073 294.614 66.962 294.795C66.7273 294.977 66.61 295.206 66.61 295.483C66.61 295.75 66.7273 295.974 66.962 296.155C67.2073 296.337 67.57 296.475 68.05 296.571C68.53 296.657 69.1006 296.699 69.762 296.699C70.4446 296.699 71.0206 296.657 71.49 296.571C71.9593 296.475 72.3166 296.337 72.562 296.155C72.8073 295.974 72.93 295.75 72.93 295.483C72.93 295.206 72.8073 294.977 72.562 294.795C72.3166 294.614 71.9593 294.481 71.49 294.395C71.0206 294.299 70.4446 294.251 69.762 294.251ZM81.1047 294.763H82.7847V296.427C82.7847 297.249 82.6941 298.07 82.5127 298.891C82.3421 299.713 82.0861 300.486 81.7447 301.211C81.4034 301.926 80.9714 302.566 80.4487 303.131C79.9367 303.697 79.3394 304.139 78.6567 304.459L77.4567 302.779C78.0754 302.491 78.6087 302.113 79.0567 301.643C79.5154 301.174 79.8941 300.651 80.1927 300.075C80.5021 299.499 80.7314 298.902 80.8807 298.283C81.0301 297.654 81.1047 297.035 81.1047 296.427V294.763ZM81.5527 294.763H83.2327V296.427C83.2327 296.982 83.3074 297.553 83.4567 298.139C83.6061 298.726 83.8247 299.291 84.1127 299.835C84.4114 300.379 84.7847 300.875 85.2327 301.323C85.6914 301.761 86.2247 302.118 86.8327 302.395L85.6487 304.091C84.9661 303.771 84.3687 303.345 83.8567 302.811C83.3554 302.267 82.9287 301.654 82.5767 300.971C82.2354 300.278 81.9794 299.547 81.8087 298.779C81.6381 298.001 81.5527 297.217 81.5527 296.427V294.763ZM78.0327 293.835H86.1767V295.595H78.0327V293.835ZM87.2487 292.427H89.3927V307.243H87.2487V292.427ZM88.9287 298.075H91.5367V299.819H88.9287V298.075ZM97.0737 293.499H103.41V295.195H97.0737V293.499ZM98.8977 296.955H100.994V300.651H98.8977V296.955ZM102.578 293.499H104.674V294.427C104.674 294.95 104.658 295.574 104.626 296.299C104.604 297.014 104.503 297.841 104.322 298.779L102.258 298.539C102.418 297.633 102.508 296.849 102.53 296.187C102.562 295.526 102.578 294.939 102.578 294.427V293.499ZM106.098 292.411H108.242V303.499H106.098V292.411ZM107.394 296.939H110.018V298.683H107.394V296.939ZM98.3537 305.275H108.722V306.987H98.3537V305.275ZM98.3537 302.523H100.498V305.803H98.3537V302.523ZM96.3857 301.531L96.1937 299.835C97.0471 299.835 97.9911 299.83 99.0257 299.819C100.06 299.798 101.116 299.755 102.194 299.691C103.271 299.617 104.306 299.51 105.298 299.371L105.442 300.891C104.418 301.073 103.372 301.211 102.306 301.307C101.239 301.393 100.199 301.451 99.1857 301.483C98.1724 301.505 97.2391 301.521 96.3857 301.531ZM121.328 292.395H123.472V307.259H121.328V292.395ZM111.936 302.075H113.248C114.123 302.075 114.95 302.065 115.728 302.043C116.507 302.011 117.27 301.963 118.016 301.899C118.763 301.825 119.526 301.718 120.304 301.579L120.528 303.291C119.334 303.505 118.155 303.649 116.992 303.723C115.84 303.787 114.592 303.819 113.248 303.819H111.936V302.075ZM111.904 293.659H118.896V299.403H114.096V302.731H111.936V297.723H116.736V295.371H111.904V293.659Z" fill="white"/>
<ellipse cx="33.4609" cy="297.278" rx="2.9609" ry="3.07479" fill="white"/>
<path d="M36.8965 301.954C37.8073 302.688 38.4707 303.684 38.4707 304.721C38.4707 305.417 38.1672 305.591 37.8637 305.591H29.6683C28.3025 305.591 28.4542 305.011 28.4542 304.721C28.4542 303.684 29.1176 302.688 30.0284 301.954C30.9392 301.22 32.1744 300.808 33.4624 300.808C34.7505 300.808 35.9857 301.22 36.8965 301.954Z" fill="white"/>
<path d="M220.822 297.754L225.946 302.361L220.822 306.968" stroke="white" stroke-width="1.4" stroke-linecap="round" stroke-linejoin="round"/>
<path d="M51.9552 336.563H53.6992V338.707C53.6992 339.667 53.6139 340.59 53.4432 341.475C53.2726 342.35 53.0112 343.171 52.6592 343.939C52.3179 344.697 51.8752 345.369 51.3312 345.955C50.7979 346.531 50.1632 346.99 49.4272 347.331L48.1632 345.571C48.8139 345.283 49.3739 344.905 49.8432 344.435C50.3232 343.955 50.7179 343.411 51.0272 342.803C51.3366 342.185 51.5659 341.529 51.7152 340.835C51.8752 340.142 51.9552 339.433 51.9552 338.707V336.563ZM52.3712 336.563H54.0992V338.707C54.0992 339.401 54.1739 340.078 54.3232 340.739C54.4726 341.401 54.6966 342.025 54.9952 342.611C55.3046 343.198 55.6886 343.721 56.1472 344.179C56.6166 344.627 57.1659 344.985 57.7952 345.251L56.5632 346.979C55.8486 346.649 55.2246 346.206 54.6912 345.651C54.1686 345.097 53.7366 344.457 53.3952 343.731C53.0539 342.995 52.7979 342.206 52.6272 341.363C52.4566 340.51 52.3712 339.625 52.3712 338.707V336.563ZM58.5152 335.395H60.6432V350.259H58.5152V335.395ZM68.578 336.275H70.418V337.347C70.418 337.987 70.3273 338.611 70.146 339.219C69.9753 339.817 69.7193 340.382 69.378 340.915C69.0366 341.449 68.6153 341.934 68.114 342.371C67.6233 342.798 67.058 343.166 66.418 343.475C65.778 343.785 65.074 344.014 64.306 344.163L63.394 342.387C64.0553 342.27 64.658 342.094 65.202 341.859C65.7566 341.614 66.242 341.321 66.658 340.979C67.074 340.638 67.426 340.27 67.714 339.875C68.002 339.47 68.2153 339.054 68.354 338.627C68.5033 338.19 68.578 337.763 68.578 337.347V336.275ZM68.994 336.275H70.85V337.347C70.85 337.774 70.9193 338.206 71.058 338.643C71.2073 339.081 71.4206 339.502 71.698 339.907C71.986 340.302 72.338 340.665 72.754 340.995C73.17 341.326 73.65 341.614 74.194 341.859C74.738 342.094 75.3513 342.27 76.034 342.387L75.122 344.163C74.354 344.014 73.65 343.785 73.01 343.475C72.37 343.166 71.7993 342.798 71.298 342.371C70.8073 341.945 70.386 341.465 70.034 340.931C69.6926 340.398 69.4313 339.827 69.25 339.219C69.0793 338.611 68.994 337.987 68.994 337.347V336.275ZM63.074 346.691H76.498V348.435H63.074V346.691ZM84.0487 338.979H86.2887V340.691H84.0487V338.979ZM78.3527 342.019H79.3767C80.0807 342.019 80.7101 342.014 81.2647 342.003C81.8301 341.982 82.3687 341.95 82.8807 341.907C83.3927 341.854 83.9207 341.785 84.4647 341.699L84.6407 343.363C84.0861 343.459 83.5421 343.534 83.0087 343.587C82.4861 343.63 81.9314 343.662 81.3447 343.683C80.7581 343.694 80.1021 343.699 79.3767 343.699H78.3527V342.019ZM78.3527 336.291H83.9367V337.971H80.4007V342.995H78.3527V336.291ZM79.8087 339.155H83.4087V340.755H79.8087V339.155ZM88.3847 335.427H90.4167V344.259H88.3847V335.427ZM85.4887 335.635H87.4887V344.147H85.4887V335.635ZM80.3687 344.851H90.4167V350.083H80.3687V344.851ZM88.3367 346.515H82.4647V348.403H88.3367V346.515ZM97.0737 336.499H103.41V338.195H97.0737V336.499ZM98.8977 339.955H100.994V343.651H98.8977V339.955ZM102.578 336.499H104.674V337.427C104.674 337.95 104.658 338.574 104.626 339.299C104.604 340.014 104.503 340.841 104.322 341.779L102.258 341.539C102.418 340.633 102.508 339.849 102.53 339.187C102.562 338.526 102.578 337.939 102.578 337.427V336.499ZM106.098 335.411H108.242V346.499H106.098V335.411ZM107.394 339.939H110.018V341.683H107.394V339.939ZM98.3537 348.275H108.722V349.987H98.3537V348.275ZM98.3537 345.523H100.498V348.803H98.3537V345.523ZM96.3857 344.531L96.1937 342.835C97.0471 342.835 97.9911 342.83 99.0257 342.819C100.06 342.798 101.116 342.755 102.194 342.691C103.271 342.617 104.306 342.51 105.298 342.371L105.442 343.891C104.418 344.073 103.372 344.211 102.306 344.307C101.239 344.393 100.199 344.451 99.1857 344.483C98.1724 344.505 97.2391 344.521 96.3857 344.531ZM121.328 335.395H123.472V350.259H121.328V335.395ZM111.936 345.075H113.248C114.123 345.075 114.95 345.065 115.728 345.043C116.507 345.011 117.27 344.963 118.016 344.899C118.763 344.825 119.526 344.718 120.304 344.579L120.528 346.291C119.334 346.505 118.155 346.649 116.992 346.723C115.84 346.787 114.592 346.819 113.248 346.819H111.936V345.075ZM111.904 336.659H118.896V342.403H114.096V345.731H111.936V340.723H116.736V338.371H111.904V336.659Z" fill="#8DA4BF"/>
<path d="M33.4112 337.891C34.0731 337.891 34.6673 338.296 34.9092 338.912L35.2579 339.802C35.3569 339.771 35.4586 339.745 35.5626 339.73L36.67 339.563C37.3245 339.464 37.9728 339.777 38.3038 340.35C38.6347 340.923 38.5807 341.641 38.168 342.158L37.4698 343.033C37.3677 343.162 37.2492 343.273 37.1212 343.371C37.273 343.479 37.4105 343.608 37.5284 343.756L38.2266 344.631C38.6392 345.149 38.6932 345.866 38.3624 346.44C38.0314 347.013 37.383 347.325 36.7286 347.227L35.6212 347.06C35.4679 347.037 35.3196 346.993 35.1778 346.937L34.9092 347.623C34.6672 348.239 34.0729 348.644 33.4112 348.644C32.7495 348.644 32.1552 348.239 31.9131 347.623L31.6631 346.986C31.5636 347.017 31.462 347.044 31.3575 347.06L30.2491 347.227C29.5948 347.325 28.9472 347.013 28.6163 346.44C28.2853 345.866 28.3384 345.149 28.751 344.631L29.4493 343.756C29.5513 343.628 29.6691 343.515 29.7969 343.417C29.6457 343.31 29.5092 343.181 29.3917 343.033L28.6924 342.158C28.2798 341.641 28.2268 340.923 28.5577 340.35C28.8886 339.777 29.537 339.464 30.1915 339.563L31.2989 339.73C31.3903 339.744 31.4797 339.765 31.5674 339.791L31.9131 338.912C32.155 338.296 32.7493 337.891 33.4112 337.891ZM33.5401 340.815C32.1143 340.815 30.9581 341.971 30.9581 343.397C30.9581 344.822 32.1143 345.979 33.5401 345.979C34.9659 345.979 36.1221 344.823 36.1221 343.397C36.1221 341.971 34.966 340.815 33.5401 340.815Z" fill="#8DA4BF"/>
<path d="M220.822 338.661L225.946 343.268L220.822 347.874" stroke="#8DA4BF" stroke-width="1.4" stroke-linecap="round" stroke-linejoin="round"/>
<path d="M31.2889 446L29.2969 442.58H27.9769V446H26.8849V437.636H29.5849C30.2169 437.636 30.7489 437.744 31.1809 437.96C31.6209 438.176 31.9489 438.468 32.1649 438.836C32.3809 439.204 32.4889 439.624 32.4889 440.096C32.4889 440.672 32.3209 441.18 31.9849 441.62C31.6569 442.06 31.1609 442.352 30.4969 442.496L32.5969 446H31.2889ZM27.9769 441.704H29.5849C30.1769 441.704 30.6209 441.56 30.9169 441.272C31.2129 440.976 31.3609 440.584 31.3609 440.096C31.3609 439.6 31.2129 439.216 30.9169 438.944C30.6289 438.672 30.1849 438.536 29.5849 438.536H27.9769V441.704ZM40.1857 442.46C40.1857 442.668 40.1737 442.888 40.1497 443.12H34.8937C34.9337 443.768 35.1537 444.276 35.5537 444.644C35.9617 445.004 36.4537 445.184 37.0297 445.184C37.5017 445.184 37.8937 445.076 38.2057 444.86C38.5257 444.636 38.7497 444.34 38.8777 443.972H40.0537C39.8777 444.604 39.5257 445.12 38.9977 445.52C38.4697 445.912 37.8137 446.108 37.0297 446.108C36.4057 446.108 35.8457 445.968 35.3497 445.688C34.8617 445.408 34.4777 445.012 34.1977 444.5C33.9177 443.98 33.7777 443.38 33.7777 442.7C33.7777 442.02 33.9137 441.424 34.1857 440.912C34.4577 440.4 34.8377 440.008 35.3257 439.736C35.8217 439.456 36.3897 439.316 37.0297 439.316C37.6537 439.316 38.2057 439.452 38.6857 439.724C39.1657 439.996 39.5337 440.372 39.7897 440.852C40.0537 441.324 40.1857 441.86 40.1857 442.46ZM39.0577 442.232C39.0577 441.816 38.9657 441.46 38.7817 441.164C38.5977 440.86 38.3457 440.632 38.0257 440.48C37.7137 440.32 37.3657 440.24 36.9817 440.24C36.4297 440.24 35.9577 440.416 35.5657 440.768C35.1817 441.12 34.9617 441.608 34.9057 442.232H39.0577ZM43.9551 446.108C43.4511 446.108 42.9991 446.024 42.5991 445.856C42.1991 445.68 41.8831 445.44 41.6511 445.136C41.4191 444.824 41.2911 444.468 41.2671 444.068H42.3951C42.4271 444.396 42.5791 444.664 42.8511 444.872C43.1311 445.08 43.4951 445.184 43.9431 445.184C44.3591 445.184 44.6871 445.092 44.9271 444.908C45.1671 444.724 45.2871 444.492 45.2871 444.212C45.2871 443.924 45.1591 443.712 44.9031 443.576C44.6471 443.432 44.2511 443.292 43.7151 443.156C43.2271 443.028 42.8271 442.9 42.5151 442.772C42.2111 442.636 41.9471 442.44 41.7231 442.184C41.5071 441.92 41.3991 441.576 41.3991 441.152C41.3991 440.816 41.4991 440.508 41.6991 440.228C41.8991 439.948 42.1831 439.728 42.5511 439.568C42.9191 439.4 43.3391 439.316 43.8111 439.316C44.5391 439.316 45.1271 439.5 45.5751 439.868C46.0231 440.236 46.2631 440.74 46.2951 441.38H45.2031C45.1791 441.036 45.0391 440.76 44.7831 440.552C44.5351 440.344 44.1991 440.24 43.7751 440.24C43.3831 440.24 43.0711 440.324 42.8391 440.492C42.6071 440.66 42.4911 440.88 42.4911 441.152C42.4911 441.368 42.5591 441.548 42.6951 441.692C42.8391 441.828 43.0151 441.94 43.2231 442.028C43.4391 442.108 43.7351 442.2 44.1111 442.304C44.5831 442.432 44.9671 442.56 45.2631 442.688C45.5591 442.808 45.8111 442.992 46.0191 443.24C46.2351 443.488 46.3471 443.812 46.3551 444.212C46.3551 444.572 46.2551 444.896 46.0551 445.184C45.8551 445.472 45.5711 445.7 45.2031 445.868C44.8431 446.028 44.4271 446.108 43.9551 446.108ZM50.7647 446.108C50.1487 446.108 49.5887 445.968 49.0847 445.688C48.5887 445.408 48.1967 445.012 47.9087 444.5C47.6287 443.98 47.4887 443.38 47.4887 442.7C47.4887 442.028 47.6327 441.436 47.9207 440.924C48.2167 440.404 48.6167 440.008 49.1207 439.736C49.6247 439.456 50.1887 439.316 50.8127 439.316C51.4367 439.316 52.0007 439.456 52.5047 439.736C53.0087 440.008 53.4047 440.4 53.6927 440.912C53.9887 441.424 54.1367 442.02 54.1367 442.7C54.1367 443.38 53.9847 443.98 53.6807 444.5C53.3847 445.012 52.9807 445.408 52.4687 445.688C51.9567 445.968 51.3887 446.108 50.7647 446.108ZM50.7647 445.148C51.1567 445.148 51.5247 445.056 51.8687 444.872C52.2127 444.688 52.4887 444.412 52.6967 444.044C52.9127 443.676 53.0207 443.228 53.0207 442.7C53.0207 442.172 52.9167 441.724 52.7087 441.356C52.5007 440.988 52.2287 440.716 51.8927 440.54C51.5567 440.356 51.1927 440.264 50.8007 440.264C50.4007 440.264 50.0327 440.356 49.6967 440.54C49.3687 440.716 49.1047 440.988 48.9047 441.356C48.7047 441.724 48.6047 442.172 48.6047 442.7C48.6047 443.236 48.7007 443.688 48.8927 444.056C49.0927 444.424 49.3567 444.7 49.6847 444.884C50.0127 445.06 50.3727 445.148 50.7647 445.148ZM61.4044 439.424V446H60.3124V445.028C60.1044 445.364 59.8124 445.628 59.4364 445.82C59.0684 446.004 58.6604 446.096 58.2124 446.096C57.7004 446.096 57.2404 445.992 56.8324 445.784C56.4244 445.568 56.1004 445.248 55.8604 444.824C55.6284 444.4 55.5124 443.884 55.5124 443.276V439.424H56.5924V443.132C56.5924 443.78 56.7564 444.28 57.0844 444.632C57.4124 444.976 57.8604 445.148 58.4284 445.148C59.0124 445.148 59.4724 444.968 59.8084 444.608C60.1444 444.248 60.3124 443.724 60.3124 443.036V439.424H61.4044ZM64.3402 440.492C64.5322 440.116 64.8042 439.824 65.1562 439.616C65.5162 439.408 65.9522 439.304 66.4642 439.304V440.432H66.1762C64.9522 440.432 64.3402 441.096 64.3402 442.424V446H63.2482V439.424H64.3402V440.492ZM67.3168 442.7C67.3168 442.02 67.4528 441.428 67.7248 440.924C67.9968 440.412 68.3728 440.016 68.8528 439.736C69.3408 439.456 69.8968 439.316 70.5208 439.316C71.3288 439.316 71.9928 439.512 72.5128 439.904C73.0408 440.296 73.3888 440.84 73.5568 441.536H72.3808C72.2688 441.136 72.0488 440.82 71.7208 440.588C71.4008 440.356 71.0008 440.24 70.5208 440.24C69.8968 440.24 69.3928 440.456 69.0088 440.888C68.6248 441.312 68.4328 441.916 68.4328 442.7C68.4328 443.492 68.6248 444.104 69.0088 444.536C69.3928 444.968 69.8968 445.184 70.5208 445.184C71.0008 445.184 71.4008 445.072 71.7208 444.848C72.0408 444.624 72.2608 444.304 72.3808 443.888H73.5568C73.3808 444.56 73.0288 445.1 72.5008 445.508C71.9728 445.908 71.3128 446.108 70.5208 446.108C69.8968 446.108 69.3408 445.968 68.8528 445.688C68.3728 445.408 67.9968 445.012 67.7248 444.5C67.4528 443.988 67.3168 443.388 67.3168 442.7ZM81.0138 442.46C81.0138 442.668 81.0018 442.888 80.9778 443.12H75.7218C75.7618 443.768 75.9818 444.276 76.3818 444.644C76.7898 445.004 77.2818 445.184 77.8578 445.184C78.3298 445.184 78.7218 445.076 79.0338 444.86C79.3538 444.636 79.5778 444.34 79.7058 443.972H80.8818C80.7058 444.604 80.3538 445.12 79.8258 445.52C79.2978 445.912 78.6418 446.108 77.8578 446.108C77.2338 446.108 76.6738 445.968 76.1778 445.688C75.6898 445.408 75.3058 445.012 75.0258 444.5C74.7458 443.98 74.6058 443.38 74.6058 442.7C74.6058 442.02 74.7418 441.424 75.0138 440.912C75.2858 440.4 75.6658 440.008 76.1538 439.736C76.6498 439.456 77.2178 439.316 77.8578 439.316C78.4818 439.316 79.0338 439.452 79.5138 439.724C79.9938 439.996 80.3618 440.372 80.6178 440.852C80.8818 441.324 81.0138 441.86 81.0138 442.46ZM79.8858 442.232C79.8858 441.816 79.7938 441.46 79.6098 441.164C79.4258 440.86 79.1738 440.632 78.8538 440.48C78.5418 440.32 78.1938 440.24 77.8098 440.24C77.2578 440.24 76.7858 440.416 76.3938 440.768C76.0098 441.12 75.7898 441.608 75.7338 442.232H79.8858ZM84.7833 446.108C84.2793 446.108 83.8273 446.024 83.4273 445.856C83.0273 445.68 82.7113 445.44 82.4793 445.136C82.2473 444.824 82.1193 444.468 82.0953 444.068H83.2233C83.2553 444.396 83.4073 444.664 83.6793 444.872C83.9593 445.08 84.3233 445.184 84.7713 445.184C85.1873 445.184 85.5153 445.092 85.7553 444.908C85.9953 444.724 86.1153 444.492 86.1153 444.212C86.1153 443.924 85.9873 443.712 85.7313 443.576C85.4753 443.432 85.0793 443.292 84.5433 443.156C84.0553 443.028 83.6553 442.9 83.3433 442.772C83.0393 442.636 82.7753 442.44 82.5513 442.184C82.3353 441.92 82.2273 441.576 82.2273 441.152C82.2273 440.816 82.3273 440.508 82.5273 440.228C82.7273 439.948 83.0113 439.728 83.3793 439.568C83.7473 439.4 84.1673 439.316 84.6393 439.316C85.3673 439.316 85.9553 439.5 86.4033 439.868C86.8513 440.236 87.0913 440.74 87.1233 441.38H86.0313C86.0073 441.036 85.8673 440.76 85.6113 440.552C85.3633 440.344 85.0273 440.24 84.6033 440.24C84.2113 440.24 83.8993 440.324 83.6673 440.492C83.4353 440.66 83.3193 440.88 83.3193 441.152C83.3193 441.368 83.3873 441.548 83.5233 441.692C83.6673 441.828 83.8433 441.94 84.0513 442.028C84.2673 442.108 84.5633 442.2 84.9393 442.304C85.4113 442.432 85.7953 442.56 86.0913 442.688C86.3873 442.808 86.6393 442.992 86.8473 443.24C87.0633 443.488 87.1753 443.812 87.1833 444.212C87.1833 444.572 87.0833 444.896 86.8833 445.184C86.6833 445.472 86.3993 445.7 86.0313 445.868C85.6713 446.028 85.2553 446.108 84.7833 446.108Z" fill="#8DA4BF"/>
<path d="M218.822 479.239L223.946 483.846L218.822 488.453" stroke="#8DA4BF" stroke-width="1.4" stroke-linecap="round" stroke-linejoin="round"/>
<path d="M56.6112 477.411H58.7552V484.851H56.6112V477.411ZM51.6832 477.971H54.0032C54.0032 479.283 53.7472 480.425 53.2352 481.395C52.7339 482.355 51.9819 483.15 50.9792 483.779C49.9766 484.398 48.7286 484.873 47.2352 485.203L46.5152 483.491C47.7632 483.246 48.7606 482.91 49.5072 482.483C50.2646 482.046 50.8139 481.545 51.1552 480.979C51.5072 480.403 51.6832 479.79 51.6832 479.139V477.971ZM47.3792 477.971H52.5632V479.667H47.3792V477.971ZM53.4272 479.267H56.8832V480.883H53.4272V479.267ZM53.3312 482.147H56.8192V483.747H53.3312V482.147ZM48.9632 485.395H58.7552V489.491H51.1072V491.315H48.9792V487.907H56.6112V487.059H48.9632V485.395ZM48.9792 490.419H59.0432V492.099H48.9792V490.419ZM71.762 477.411H73.794V492.227H71.762V477.411ZM66.882 482.483H69.346V484.211H66.882V482.483ZM68.77 477.651H70.754V491.555H68.77V477.651ZM63.698 479.827H65.298V481.347C65.298 482.179 65.234 483.001 65.106 483.811C64.9886 484.622 64.802 485.39 64.546 486.115C64.29 486.83 63.954 487.475 63.538 488.051C63.122 488.627 62.6206 489.102 62.034 489.475L60.77 487.907C61.4953 487.449 62.0713 486.873 62.498 486.179C62.9246 485.475 63.2286 484.707 63.41 483.875C63.602 483.033 63.698 482.19 63.698 481.347V479.827ZM64.178 479.827H65.762V481.347C65.762 482.169 65.8526 482.979 66.034 483.779C66.2153 484.579 66.514 485.31 66.93 485.971C67.346 486.622 67.9113 487.155 68.626 487.571L67.394 489.107C66.6046 488.638 65.9753 488.003 65.506 487.203C65.0366 486.403 64.6953 485.502 64.482 484.499C64.2793 483.486 64.178 482.435 64.178 481.347V479.827ZM61.314 478.899H67.922V480.611H61.314V478.899ZM81.1847 479.395L77.1847 490.819H75.2487L79.2487 479.395H81.1847ZM87.6297 481.331H90.6217V483.011H87.6297V481.331ZM87.5497 485.027H90.5737V486.723H87.5497V485.027ZM92.6377 477.411H94.6697V492.227H92.6377V477.411ZM89.5977 477.731H91.5817V491.571H89.5977V477.731ZM86.2537 479.155H88.2857C88.2857 480.563 88.1204 481.875 87.7897 483.091C87.4697 484.297 86.9151 485.406 86.1257 486.419C85.3471 487.433 84.2697 488.345 82.8937 489.155L81.6937 487.667C82.8137 486.995 83.7044 486.265 84.3657 485.475C85.0377 484.675 85.5177 483.795 85.8057 482.835C86.1044 481.865 86.2537 480.782 86.2537 479.587V479.155ZM82.5417 479.155H86.9577V480.867H82.5417V479.155ZM104.668 480.995H107.484V482.723H104.668V480.995ZM106.892 477.427H109.036V486.227H106.892V477.427ZM104.012 486.547C105.058 486.547 105.959 486.659 106.716 486.883C107.474 487.107 108.055 487.433 108.46 487.859C108.876 488.286 109.084 488.798 109.084 489.395C109.084 490.313 108.631 491.017 107.724 491.507C106.818 492.009 105.58 492.259 104.012 492.259C102.444 492.259 101.207 492.009 100.3 491.507C99.3938 491.017 98.9405 490.313 98.9405 489.395C98.9405 488.798 99.1431 488.286 99.5485 487.859C99.9645 487.433 100.551 487.107 101.308 486.883C102.066 486.659 102.967 486.547 104.012 486.547ZM104.012 488.163C103.372 488.163 102.834 488.211 102.396 488.307C101.959 488.393 101.623 488.526 101.388 488.707C101.164 488.889 101.052 489.118 101.052 489.395C101.052 489.673 101.164 489.907 101.388 490.099C101.623 490.281 101.959 490.419 102.396 490.515C102.834 490.601 103.372 490.643 104.012 490.643C104.652 490.643 105.191 490.601 105.628 490.515C106.066 490.419 106.396 490.281 106.62 490.099C106.844 489.907 106.956 489.673 106.956 489.395C106.956 489.118 106.844 488.889 106.62 488.707C106.396 488.526 106.066 488.393 105.628 488.307C105.191 488.211 104.652 488.163 104.012 488.163ZM100.06 478.899H101.788V479.843C101.788 480.782 101.639 481.678 101.34 482.531C101.042 483.385 100.583 484.137 99.9645 484.787C99.3565 485.427 98.5778 485.907 97.6285 486.227L96.5565 484.547C97.1645 484.345 97.6871 484.073 98.1245 483.731C98.5725 483.39 98.9351 483.011 99.2125 482.595C99.5005 482.169 99.7138 481.721 99.8525 481.251C99.9911 480.782 100.06 480.313 100.06 479.843V478.899ZM100.508 478.899H102.204V479.827C102.204 480.414 102.322 480.99 102.556 481.555C102.791 482.121 103.154 482.633 103.644 483.091C104.146 483.55 104.786 483.913 105.564 484.179L104.524 485.843C103.607 485.534 102.85 485.081 102.252 484.483C101.666 483.875 101.228 483.171 100.94 482.371C100.652 481.561 100.508 480.713 100.508 479.827V478.899ZM97.1325 478.323H105.1V480.003H97.1325V478.323ZM115.917 478.499H122.253V480.195H115.917V478.499ZM117.741 481.955H119.837V485.651H117.741V481.955ZM121.421 478.499H123.517V479.427C123.517 479.95 123.501 480.574 123.469 481.299C123.448 482.014 123.347 482.841 123.165 483.779L121.101 483.539C121.261 482.633 121.352 481.849 121.373 481.187C121.405 480.526 121.421 479.939 121.421 479.427V478.499ZM124.941 477.411H127.085V488.499H124.941V477.411ZM126.237 481.939H128.861V483.683H126.237V481.939ZM117.197 490.275H127.565V491.987H117.197V490.275ZM117.197 487.523H119.341V490.803H117.197V487.523ZM115.229 486.531L115.037 484.835C115.891 484.835 116.835 484.83 117.869 484.819C118.904 484.798 119.96 484.755 121.037 484.691C122.115 484.617 123.149 484.51 124.141 484.371L124.285 485.891C123.261 486.073 122.216 486.211 121.149 486.307C120.083 486.393 119.043 486.451 118.029 486.483C117.016 486.505 116.083 486.521 115.229 486.531ZM140.172 477.395H142.316V492.259H140.172V477.395ZM130.78 487.075H132.092C132.967 487.075 133.794 487.065 134.572 487.043C135.351 487.011 136.114 486.963 136.86 486.899C137.607 486.825 138.37 486.718 139.148 486.579L139.372 488.291C138.178 488.505 136.999 488.649 135.836 488.723C134.684 488.787 133.436 488.819 132.092 488.819H130.78V487.075ZM130.748 478.659H137.74V484.403H132.94V487.731H130.78V482.723H135.58V480.371H130.748V478.659Z" fill="#8DA4BF"/>
<rect x="27.1621" y="480.01" width="4.86734" height="4.86734" rx="1" fill="#8DA4BF"/>
<rect x="32.875" y="480.01" width="4.86734" height="4.86734" rx="1" fill="#8DA4BF"/>
<rect x="27.1621" y="485.724" width="4.86734" height="4.86734" rx="1" fill="#8DA4BF"/>
<rect x="32.875" y="485.724" width="4.86734" height="4.86734" rx="1" fill="#8DA4BF"/>
<path d="M31.4889 122.636C32.4009 122.636 33.1889 122.808 33.8529 123.152C34.5249 123.488 35.0369 123.972 35.3889 124.604C35.7489 125.236 35.9289 125.98 35.9289 126.836C35.9289 127.692 35.7489 128.436 35.3889 129.068C35.0369 129.692 34.5249 130.172 33.8529 130.508C33.1889 130.836 32.4009 131 31.4889 131H28.8849V122.636H31.4889ZM31.4889 130.1C32.5689 130.1 33.3929 129.816 33.9609 129.248C34.5289 128.672 34.8129 127.868 34.8129 126.836C34.8129 125.796 34.5249 124.984 33.9489 124.4C33.3809 123.816 32.5609 123.524 31.4889 123.524H29.9769V130.1H31.4889ZM36.9613 127.688C36.9613 127.016 37.0973 126.428 37.3693 125.924C37.6413 125.412 38.0133 125.016 38.4853 124.736C38.9653 124.456 39.4973 124.316 40.0813 124.316C40.6573 124.316 41.1573 124.44 41.5813 124.688C42.0053 124.936 42.3213 125.248 42.5293 125.624V124.424H43.6333V131H42.5293V129.776C42.3133 130.16 41.9893 130.48 41.5573 130.736C41.1333 130.984 40.6373 131.108 40.0693 131.108C39.4853 131.108 38.9573 130.964 38.4853 130.676C38.0133 130.388 37.6413 129.984 37.3693 129.464C37.0973 128.944 36.9613 128.352 36.9613 127.688ZM42.5293 127.7C42.5293 127.204 42.4293 126.772 42.2293 126.404C42.0293 126.036 41.7573 125.756 41.4133 125.564C41.0773 125.364 40.7053 125.264 40.2973 125.264C39.8893 125.264 39.5173 125.36 39.1813 125.552C38.8453 125.744 38.5773 126.024 38.3773 126.392C38.1773 126.76 38.0773 127.192 38.0773 127.688C38.0773 128.192 38.1773 128.632 38.3773 129.008C38.5773 129.376 38.8453 129.66 39.1813 129.86C39.5173 130.052 39.8893 130.148 40.2973 130.148C40.7053 130.148 41.0773 130.052 41.4133 129.86C41.7573 129.66 42.0293 129.376 42.2293 129.008C42.4293 128.632 42.5293 128.196 42.5293 127.7ZM47.8067 131.108C47.3027 131.108 46.8507 131.024 46.4507 130.856C46.0507 130.68 45.7347 130.44 45.5027 130.136C45.2707 129.824 45.1427 129.468 45.1187 129.068H46.2467C46.2787 129.396 46.4307 129.664 46.7027 129.872C46.9827 130.08 47.3467 130.184 47.7947 130.184C48.2107 130.184 48.5387 130.092 48.7787 129.908C49.0187 129.724 49.1387 129.492 49.1387 129.212C49.1387 128.924 49.0107 128.712 48.7547 128.576C48.4987 128.432 48.1027 128.292 47.5667 128.156C47.0787 128.028 46.6787 127.9 46.3667 127.772C46.0627 127.636 45.7987 127.44 45.5747 127.184C45.3587 126.92 45.2507 126.576 45.2507 126.152C45.2507 125.816 45.3507 125.508 45.5507 125.228C45.7507 124.948 46.0347 124.728 46.4027 124.568C46.7707 124.4 47.1907 124.316 47.6627 124.316C48.3907 124.316 48.9787 124.5 49.4267 124.868C49.8747 125.236 50.1147 125.74 50.1467 126.38H49.0547C49.0307 126.036 48.8907 125.76 48.6347 125.552C48.3867 125.344 48.0507 125.24 47.6267 125.24C47.2347 125.24 46.9227 125.324 46.6907 125.492C46.4587 125.66 46.3427 125.88 46.3427 126.152C46.3427 126.368 46.4107 126.548 46.5467 126.692C46.6907 126.828 46.8667 126.94 47.0747 127.028C47.2907 127.108 47.5867 127.2 47.9627 127.304C48.4347 127.432 48.8187 127.56 49.1147 127.688C49.4107 127.808 49.6627 127.992 49.8707 128.24C50.0867 128.488 50.1987 128.812 50.2067 129.212C50.2067 129.572 50.1067 129.896 49.9067 130.184C49.7067 130.472 49.4227 130.7 49.0547 130.868C48.6947 131.028 48.2787 131.108 47.8067 131.108ZM55.0122 124.304C55.5082 124.304 55.9562 124.412 56.3562 124.628C56.7562 124.836 57.0682 125.152 57.2922 125.576C57.5242 126 57.6402 126.516 57.6402 127.124V131H56.5602V127.28C56.5602 126.624 56.3962 126.124 56.0682 125.78C55.7402 125.428 55.2922 125.252 54.7242 125.252C54.1482 125.252 53.6882 125.432 53.3442 125.792C53.0082 126.152 52.8402 126.676 52.8402 127.364V131H51.7482V122.12H52.8402V125.36C53.0562 125.024 53.3522 124.764 53.7282 124.58C54.1122 124.396 54.5402 124.304 55.0122 124.304ZM60.516 125.648C60.74 125.256 61.068 124.936 61.5 124.688C61.932 124.44 62.424 124.316 62.976 124.316C63.568 124.316 64.1 124.456 64.572 124.736C65.044 125.016 65.416 125.412 65.688 125.924C65.96 126.428 66.096 127.016 66.096 127.688C66.096 128.352 65.96 128.944 65.688 129.464C65.416 129.984 65.04 130.388 64.56 130.676C64.088 130.964 63.56 131.108 62.976 131.108C62.408 131.108 61.908 130.984 61.476 130.736C61.052 130.488 60.732 130.172 60.516 129.788V131H59.424V122.12H60.516V125.648ZM64.98 127.688C64.98 127.192 64.88 126.76 64.68 126.392C64.48 126.024 64.208 125.744 63.864 125.552C63.528 125.36 63.156 125.264 62.748 125.264C62.348 125.264 61.976 125.364 61.632 125.564C61.296 125.756 61.024 126.04 60.816 126.416C60.616 126.784 60.516 127.212 60.516 127.7C60.516 128.196 60.616 128.632 60.816 129.008C61.024 129.376 61.296 129.66 61.632 129.86C61.976 130.052 62.348 130.148 62.748 130.148C63.156 130.148 63.528 130.052 63.864 129.86C64.208 129.66 64.48 129.376 64.68 129.008C64.88 128.632 64.98 128.192 64.98 127.688ZM70.4014 131.108C69.7854 131.108 69.2254 130.968 68.7214 130.688C68.2254 130.408 67.8334 130.012 67.5454 129.5C67.2654 128.98 67.1254 128.38 67.1254 127.7C67.1254 127.028 67.2694 126.436 67.5574 125.924C67.8534 125.404 68.2534 125.008 68.7574 124.736C69.2614 124.456 69.8254 124.316 70.4494 124.316C71.0734 124.316 71.6374 124.456 72.1414 124.736C72.6454 125.008 73.0414 125.4 73.3294 125.912C73.6254 126.424 73.7734 127.02 73.7734 127.7C73.7734 128.38 73.6214 128.98 73.3174 129.5C73.0214 130.012 72.6174 130.408 72.1054 130.688C71.5934 130.968 71.0254 131.108 70.4014 131.108ZM70.4014 130.148C70.7934 130.148 71.1614 130.056 71.5054 129.872C71.8494 129.688 72.1254 129.412 72.3334 129.044C72.5494 128.676 72.6574 128.228 72.6574 127.7C72.6574 127.172 72.5534 126.724 72.3454 126.356C72.1374 125.988 71.8654 125.716 71.5294 125.54C71.1934 125.356 70.8294 125.264 70.4374 125.264C70.0374 125.264 69.6694 125.356 69.3334 125.54C69.0054 125.716 68.7414 125.988 68.5414 126.356C68.3414 126.724 68.2414 127.172 68.2414 127.7C68.2414 128.236 68.3374 128.688 68.5294 129.056C68.7294 129.424 68.9934 129.7 69.3214 129.884C69.6494 130.06 70.0094 130.148 70.4014 130.148ZM74.8012 127.688C74.8012 127.016 74.9372 126.428 75.2092 125.924C75.4812 125.412 75.8532 125.016 76.3252 124.736C76.8052 124.456 77.3372 124.316 77.9212 124.316C78.4972 124.316 78.9972 124.44 79.4212 124.688C79.8452 124.936 80.1612 125.248 80.3692 125.624V124.424H81.4732V131H80.3692V129.776C80.1532 130.16 79.8292 130.48 79.3972 130.736C78.9732 130.984 78.4772 131.108 77.9092 131.108C77.3252 131.108 76.7972 130.964 76.3252 130.676C75.8532 130.388 75.4812 129.984 75.2092 129.464C74.9372 128.944 74.8012 128.352 74.8012 127.688ZM80.3692 127.7C80.3692 127.204 80.2692 126.772 80.0692 126.404C79.8692 126.036 79.5972 125.756 79.2532 125.564C78.9172 125.364 78.5452 125.264 78.1372 125.264C77.7292 125.264 77.3572 125.36 77.0212 125.552C76.6852 125.744 76.4172 126.024 76.2172 126.392C76.0172 126.76 75.9172 127.192 75.9172 127.688C75.9172 128.192 76.0172 128.632 76.2172 129.008C76.4172 129.376 76.6852 129.66 77.0212 129.86C77.3572 130.052 77.7292 130.148 78.1372 130.148C78.5452 130.148 78.9172 130.052 79.2532 129.86C79.5972 129.66 79.8692 129.376 80.0692 129.008C80.2692 128.632 80.3692 128.196 80.3692 127.7ZM84.4105 125.492C84.6025 125.116 84.8745 124.824 85.2265 124.616C85.5865 124.408 86.0225 124.304 86.5345 124.304V125.432H86.2465C85.0225 125.432 84.4105 126.096 84.4105 127.424V131H83.3185V124.424H84.4105V125.492ZM87.3871 127.688C87.3871 127.016 87.5231 126.428 87.7951 125.924C88.0671 125.412 88.4391 125.016 88.9111 124.736C89.3911 124.456 89.9271 124.316 90.5191 124.316C91.0311 124.316 91.5071 124.436 91.9471 124.676C92.3871 124.908 92.7231 125.216 92.9551 125.6V122.12H94.0591V131H92.9551V129.764C92.7391 130.156 92.4191 130.48 91.9951 130.736C91.5711 130.984 91.0751 131.108 90.5071 131.108C89.9231 131.108 89.3911 130.964 88.9111 130.676C88.4391 130.388 88.0671 129.984 87.7951 129.464C87.5231 128.944 87.3871 128.352 87.3871 127.688ZM92.9551 127.7C92.9551 127.204 92.8551 126.772 92.6551 126.404C92.4551 126.036 92.1831 125.756 91.8391 125.564C91.5031 125.364 91.1311 125.264 90.7231 125.264C90.3151 125.264 89.9431 125.36 89.6071 125.552C89.2711 125.744 89.0031 126.024 88.8031 126.392C88.6031 126.76 88.5031 127.192 88.5031 127.688C88.5031 128.192 88.6031 128.632 88.8031 129.008C89.0031 129.376 89.2711 129.66 89.6071 129.86C89.9431 130.052 90.3151 130.148 90.7231 130.148C91.1311 130.148 91.5031 130.052 91.8391 129.86C92.1831 129.66 92.4551 129.376 92.6551 129.008C92.8551 128.632 92.9551 128.196 92.9551 127.7Z" fill="#8DA4BF"/>
<path d="M51.286 71L53.464 55.424H59.69C63.496 55.424 64.926 58.218 64.618 61.034C64.288 63.982 62.11 66.446 58.348 66.446H55.862L55.224 71H51.286ZM56.346 62.948H58.634C59.866 62.97 60.57 61.98 60.702 60.924C60.834 59.89 60.328 59.098 59.184 59.098H56.896L56.346 62.948ZM73.5589 55.424L76.9469 71H72.7229L72.1289 67.876H67.9709L66.5849 71H62.3609L69.9729 55.424H73.5589ZM69.3569 64.378H71.6889L71.2269 59.824H71.0729L69.3569 64.378ZM86.5056 71L83.3376 66.05H82.6336L81.9516 71H77.9696L80.1476 55.424H86.3736C89.5856 55.424 91.8736 57.14 91.4336 60.792C91.0376 63.674 89.8056 64.642 87.6716 65.654L91.4116 71H86.5056ZM83.1176 62.662H85.4276C86.6376 62.662 87.3416 61.76 87.4516 60.858C87.5616 59.912 87.0996 59.098 85.9336 59.098H83.6236L83.1176 62.662ZM104.874 59.01H100.672L99.022 71H95.04L96.69 59.01H92.488L93.016 55.402H105.402L104.874 59.01ZM104.739 71L106.917 55.424H110.657L113.495 62.068L114.375 65.192L114.463 65.17L114.419 62.486L115.409 55.424H119.325L117.147 71H113.165L110.503 64.862L109.579 61.738L109.491 61.76L109.535 64.774L108.677 71H104.739ZM125.238 59.142L124.908 61.452H131.222L130.738 64.95H124.424L124.094 67.282H130.958L130.452 71H119.606L121.784 55.424H132.63L132.102 59.142H125.238ZM141.076 71L137.908 66.05H137.204L136.522 71H132.54L134.718 55.424H140.944C144.156 55.424 146.444 57.14 146.004 60.792C145.608 63.674 144.376 64.642 142.242 65.654L145.982 71H141.076ZM137.688 62.662H139.998C141.208 62.662 141.912 61.76 142.022 60.858C142.132 59.912 141.67 59.098 140.504 59.098H138.194L137.688 62.662ZM152.793 55.424L150.615 71H146.677L148.855 55.424H152.793ZM166.169 59.01H161.967L160.317 71H156.335L157.985 59.01H153.783L154.311 55.402H166.697L166.169 59.01Z" fill="white"/>
<path d="M43.5684 53.9423C44.7771 55.1521 44.9666 56.5802 44.699 57.8023C44.446 58.9582 43.7919 59.94 43.2536 60.5229L40.1167 64.4203L38.4214 63.0559L41.6075 59.0972L41.6364 59.0666C41.9882 58.6929 42.4204 58.0344 42.5731 57.3369C42.7078 56.7214 42.6311 56.0987 42.0532 55.505L41.9957 55.4477C41.536 55.0023 41.1284 54.8198 40.7879 54.7584C40.4421 54.6961 40.0779 54.743 39.6871 54.8959C38.8679 55.2163 38.0726 55.9475 37.4693 56.6646L37.3663 56.7883C36.3652 58.0014 33.3859 61.8714 31.4406 64.4141L30.6539 65.4438L30.6514 65.4471L30.6488 65.4505L29.1968 67.3236C28.9859 67.6134 28.6517 68.2571 28.5866 68.9143C28.5291 69.4958 28.6695 70.0396 29.3606 70.4794C30.0783 70.9362 30.8023 70.9132 31.5945 70.5402C32.406 70.158 33.2175 69.4283 33.911 68.5858L33.9778 68.504C34.7123 67.594 35.4089 66.7295 35.9498 66.0575L37.6451 67.422C37.1036 68.0948 36.4063 68.9601 35.6711 69.8709L35.5942 69.9651C34.792 70.9405 33.7374 71.9365 32.5217 72.5091C31.2211 73.1215 29.6805 73.2626 28.1921 72.3153C26.6771 71.3511 26.2992 69.9307 26.421 68.7C26.5348 67.5499 27.0734 66.5382 27.4475 66.0288L27.4558 66.0175L27.4644 66.0064L28.9236 64.124L29.7054 63.1007C31.6457 60.5644 34.6597 56.6485 35.697 55.392L35.804 55.2636C36.4874 54.4512 37.5681 53.388 38.8944 52.8692C39.5763 52.6025 40.3521 52.4686 41.1738 52.6167C42.0006 52.7657 42.7877 53.1849 43.51 53.8848L43.5684 53.9423Z" fill="white"/>
<path d="M25.1704 59.2526C26.1945 57.8732 27.4929 57.3978 28.7255 57.4906C29.8702 57.5767 30.8462 58.1408 31.4224 58.6342L31.869 58.9829L30.5295 60.698L30.0417 60.3171L30.0196 60.2978C29.6943 60.0143 29.1327 59.7037 28.5622 59.6607C28.0961 59.6256 27.5221 59.7541 26.9431 60.5161L26.8871 60.5918C26.0686 61.7269 26.1534 62.4967 26.3699 63.0133C26.6118 63.5905 27.1085 64.0526 27.5181 64.3568L27.5987 64.4157L27.6059 64.4207L27.6131 64.4261L33.0056 68.4106L39.2795 72.5201C39.7955 72.7819 40.888 72.9701 41.6801 72.0417L41.7307 71.9808C42.2373 71.355 42.2426 70.828 42.1331 70.4161C42.0091 69.9499 41.7128 69.5725 41.5509 69.4169L41.5204 69.3887C41.1079 69.0257 36.0762 65.0846 33.5673 63.1253L34.9067 61.4101C37.3623 63.3278 42.4819 67.3359 42.9581 67.7551L42.9965 67.7895C43.3991 68.1571 43.9794 68.8907 44.2363 69.8569C44.5162 70.9098 44.3908 72.1818 43.3843 73.3963L43.3357 73.4541C41.573 75.5202 39.1587 74.9289 38.2122 74.4179L38.1715 74.3959L38.133 74.3706L31.7882 70.2146L31.7624 70.1977L26.3199 66.1763L26.3199 66.1762C25.7924 65.7978 24.8536 65.0256 24.3628 63.8545C23.826 62.5736 23.9035 61.0088 25.1218 59.3191L25.1704 59.2526Z" fill="white"/>
<defs>
<linearGradient id="paint0_linear_380_2587" x1="125" y1="0" x2="125" y2="1080" gradientUnits="userSpaceOnUse">
<stop stop-color="#0C1232"/>
<stop offset="1" stop-color="#0B1131"/>
</linearGradient>
</defs>
</svg>
