<svg width="1930" height="70" viewBox="0 0 1930 70" fill="none" xmlns="http://www.w3.org/2000/svg">
<g filter="url(#filter0_d_713_1255)">
<rect x="5" y="1" width="1920" height="60" fill="white"/>
<circle cx="1862.89" cy="31.0004" r="13.6" fill="#A6ACBE"/>
<path d="M1862.85 30.9514C1862.26 30.9514 1861.69 30.8322 1861.16 30.5699C1859.75 29.926 1858.85 28.4952 1858.85 26.9452C1858.85 24.7514 1860.64 22.9629 1862.85 22.9629C1865.07 22.9629 1866.86 24.7514 1866.86 26.9452C1866.86 28.4952 1865.95 29.9022 1864.55 30.5699C1864.02 30.8322 1863.45 30.9514 1862.85 30.9514Z" fill="white"/>
<path d="M1863.21 38.748C1863.16 38.748 1863.09 38.748 1863.05 38.748H1862.71C1861.07 38.748 1859.66 38.748 1858.59 38.3665C1857.37 37.9372 1856.77 37.0072 1856.77 35.5765C1856.77 33.0487 1858.61 30.8072 1861.23 30.1156L1861.33 30.0918L1861.4 30.1395C1862.33 30.5687 1863.45 30.5687 1864.38 30.1395L1864.45 30.0918L1864.55 30.1156C1867.17 30.8072 1869.01 33.0487 1869.01 35.5765C1869.01 37.0311 1868.41 37.9372 1867.19 38.3665C1866.12 38.748 1864.76 38.748 1863.21 38.748Z" fill="white"/>
<circle cx="1862.89" cy="31" r="16" stroke="#A6ACBE" stroke-width="0.5"/>
<path d="M1741.97 23.576H1744.1V38.44H1741.97V23.576ZM1736.12 24.616C1736.87 24.616 1737.55 24.8347 1738.13 25.272C1738.72 25.6987 1739.18 26.312 1739.51 27.112C1739.85 27.9013 1740.02 28.8347 1740.02 29.912C1740.02 31 1739.85 31.944 1739.51 32.744C1739.18 33.5333 1738.72 34.1467 1738.13 34.584C1737.55 35.0107 1736.87 35.224 1736.12 35.224C1735.37 35.224 1734.7 35.0107 1734.12 34.584C1733.53 34.1467 1733.07 33.5333 1732.72 32.744C1732.39 31.944 1732.23 31 1732.23 29.912C1732.23 28.8347 1732.39 27.9013 1732.72 27.112C1733.07 26.312 1733.53 25.6987 1734.12 25.272C1734.7 24.8347 1735.37 24.616 1736.12 24.616ZM1736.12 26.552C1735.75 26.552 1735.43 26.68 1735.16 26.936C1734.88 27.192 1734.66 27.5707 1734.5 28.072C1734.35 28.5627 1734.28 29.176 1734.28 29.912C1734.28 30.6373 1734.35 31.256 1734.5 31.768C1734.66 32.2693 1734.88 32.648 1735.16 32.904C1735.43 33.16 1735.75 33.288 1736.12 33.288C1736.49 33.288 1736.81 33.16 1737.09 32.904C1737.37 32.648 1737.58 32.2693 1737.73 31.768C1737.89 31.256 1737.97 30.6373 1737.97 29.912C1737.97 29.176 1737.89 28.5627 1737.73 28.072C1737.58 27.5707 1737.37 27.192 1737.09 26.936C1736.81 26.68 1736.49 26.552 1736.12 26.552ZM1750.58 24.616C1751.32 24.616 1751.97 24.8347 1752.55 25.272C1753.13 25.6987 1753.59 26.312 1753.91 27.112C1754.24 27.9013 1754.4 28.8347 1754.4 29.912C1754.4 31 1754.24 31.944 1753.91 32.744C1753.59 33.5333 1753.13 34.1467 1752.55 34.584C1751.97 35.0107 1751.32 35.224 1750.58 35.224C1749.84 35.224 1749.19 35.0107 1748.61 34.584C1748.04 34.1467 1747.58 33.5333 1747.25 32.744C1746.92 31.944 1746.76 31 1746.76 29.912C1746.76 28.8347 1746.92 27.9013 1747.25 27.112C1747.58 26.312 1748.04 25.6987 1748.61 25.272C1749.19 24.8347 1749.84 24.616 1750.58 24.616ZM1750.58 26.552C1750.23 26.552 1749.91 26.68 1749.64 26.936C1749.37 27.192 1749.16 27.5707 1749.01 28.072C1748.86 28.5627 1748.79 29.176 1748.79 29.912C1748.79 30.6373 1748.86 31.256 1749.01 31.768C1749.16 32.2693 1749.37 32.648 1749.64 32.904C1749.91 33.16 1750.23 33.288 1750.58 33.288C1750.95 33.288 1751.27 33.16 1751.54 32.904C1751.81 32.648 1752.01 32.2693 1752.16 31.768C1752.31 31.256 1752.39 30.6373 1752.39 29.912C1752.39 29.176 1752.31 28.5627 1752.16 28.072C1752.01 27.5707 1751.81 27.192 1751.54 26.936C1751.27 26.68 1750.95 26.552 1750.58 26.552ZM1756.84 23.576H1758.96V38.44H1756.84V23.576ZM1753.78 28.936H1757.73V30.632H1753.78V28.936ZM1761.23 30.712H1774.64V32.392H1761.23V30.712ZM1766.87 28.952H1768.98V31.192H1766.87V28.952ZM1762.95 23.944H1765.04V25.192H1770.83V23.944H1772.95V29.56H1762.95V23.944ZM1765.04 26.776V27.896H1770.83V26.776H1765.04ZM1762.8 33.32H1773.04V38.264H1762.8V33.32ZM1770.96 35H1764.88V36.584H1770.96V35ZM1789.39 23.592H1791.52V31.896H1789.39V23.592ZM1790.95 26.92H1793.49V28.648H1790.95V26.92ZM1780.42 29.688H1781.65C1782.73 29.688 1783.65 29.6773 1784.4 29.656C1785.17 29.6347 1785.85 29.592 1786.45 29.528C1787.06 29.4533 1787.66 29.3573 1788.24 29.24L1788.45 30.92C1787.85 31.048 1787.24 31.1493 1786.61 31.224C1785.99 31.288 1785.29 31.3307 1784.5 31.352C1783.71 31.3733 1782.76 31.384 1781.65 31.384H1780.42V29.688ZM1780.42 24.52H1787.01V26.2H1782.55V30.664H1780.42V24.52ZM1781.89 32.552H1791.52V38.264H1781.89V32.552ZM1789.44 34.216H1783.99V36.584H1789.44V34.216ZM1804.13 23.592H1806.27V32.152H1804.13V23.592ZM1805.67 27.096H1808.21V28.84H1805.67V27.096ZM1801.41 32.408C1802.43 32.408 1803.32 32.5307 1804.07 32.776C1804.81 33.0213 1805.39 33.368 1805.79 33.816C1806.21 34.2533 1806.42 34.7867 1806.42 35.416C1806.42 36.0453 1806.21 36.584 1805.79 37.032C1805.39 37.4907 1804.81 37.8373 1804.07 38.072C1803.32 38.3173 1802.43 38.44 1801.41 38.44C1800.4 38.44 1799.51 38.3173 1798.75 38.072C1798 37.8373 1797.41 37.4907 1796.99 37.032C1796.59 36.584 1796.39 36.0453 1796.39 35.416C1796.39 34.7867 1796.59 34.2533 1796.99 33.816C1797.41 33.368 1798 33.0213 1798.75 32.776C1799.51 32.5307 1800.4 32.408 1801.41 32.408ZM1801.41 34.104C1800.78 34.104 1800.25 34.152 1799.83 34.248C1799.4 34.344 1799.07 34.488 1798.83 34.68C1798.61 34.872 1798.5 35.1173 1798.5 35.416C1798.5 35.704 1798.61 35.9493 1798.83 36.152C1799.07 36.344 1799.4 36.488 1799.83 36.584C1800.25 36.68 1800.78 36.728 1801.41 36.728C1802.04 36.728 1802.57 36.68 1802.99 36.584C1803.43 36.488 1803.76 36.344 1803.99 36.152C1804.21 35.9493 1804.32 35.704 1804.32 35.416C1804.32 35.1173 1804.21 34.872 1803.99 34.68C1803.76 34.488 1803.43 34.344 1802.99 34.248C1802.57 34.152 1802.04 34.104 1801.41 34.104ZM1795.09 29.672H1796.34C1797.43 29.672 1798.35 29.6613 1799.12 29.64C1799.89 29.6187 1800.58 29.576 1801.19 29.512C1801.79 29.4373 1802.4 29.336 1802.99 29.208L1803.2 30.904C1802.59 31.032 1801.97 31.1333 1801.35 31.208C1800.72 31.272 1800 31.32 1799.2 31.352C1798.41 31.3733 1797.46 31.384 1796.34 31.384H1795.09V29.672ZM1795.09 24.584H1801.73V26.296H1797.22V30.84H1795.09V24.584ZM1812.62 25.944H1814.3V27.608C1814.3 28.4293 1814.21 29.2507 1814.03 30.072C1813.86 30.8933 1813.61 31.6667 1813.26 32.392C1812.92 33.1067 1812.49 33.7467 1811.97 34.312C1811.46 34.8773 1810.86 35.32 1810.18 35.64L1808.98 33.96C1809.59 33.672 1810.13 33.2933 1810.58 32.824C1811.03 32.3547 1811.41 31.832 1811.71 31.256C1812.02 30.68 1812.25 30.0827 1812.4 29.464C1812.55 28.8347 1812.62 28.216 1812.62 27.608V25.944ZM1813.07 25.944H1814.75V27.608C1814.75 28.1627 1814.83 28.7333 1814.98 29.32C1815.13 29.9067 1815.34 30.472 1815.63 31.016C1815.93 31.56 1816.3 32.056 1816.75 32.504C1817.21 32.9413 1817.74 33.2987 1818.35 33.576L1817.17 35.272C1816.49 34.952 1815.89 34.5253 1815.38 33.992C1814.87 33.448 1814.45 32.8347 1814.1 32.152C1813.75 31.4587 1813.5 30.728 1813.33 29.96C1813.16 29.1813 1813.07 28.3973 1813.07 27.608V25.944ZM1809.55 25.016H1817.7V26.776H1809.55V25.016ZM1818.77 23.608H1820.91V38.424H1818.77V23.608ZM1820.45 29.256H1823.06V31H1820.45V29.256ZM1834.7 23.768H1836.03V31.96H1834.7V23.768ZM1825.07 24.616H1826.4V30.504H1825.07V24.616ZM1825.07 29.768H1826.24C1827.46 29.768 1828.62 29.72 1829.73 29.624C1830.84 29.528 1831.97 29.3573 1833.12 29.112L1833.31 30.216C1832.12 30.4613 1830.95 30.6373 1829.82 30.744C1828.69 30.84 1827.5 30.888 1826.24 30.888H1825.07V29.768ZM1826.69 32.664H1836.03V38.04L1826.69 38.04V32.664ZM1834.72 33.72H1827.98V36.968H1834.72V33.72Z" fill="#1E1D2D"/>
<path d="M1638.67 29.46C1639.45 29.46 1640.03 29.632 1640.41 29.976C1640.78 30.32 1640.97 30.868 1640.97 31.62V36H1640.2L1640 35.088H1639.95C1639.77 35.32 1639.57 35.516 1639.37 35.676C1639.18 35.828 1638.96 35.94 1638.7 36.012C1638.45 36.084 1638.15 36.12 1637.79 36.12C1637.41 36.12 1637.06 36.052 1636.75 35.916C1636.44 35.78 1636.2 35.572 1636.03 35.292C1635.85 35.004 1635.76 34.644 1635.76 34.212C1635.76 33.572 1636.01 33.08 1636.52 32.736C1637.02 32.384 1637.8 32.192 1638.85 32.16L1639.94 32.124V31.74C1639.94 31.204 1639.82 30.832 1639.59 30.624C1639.36 30.416 1639.03 30.312 1638.61 30.312C1638.27 30.312 1637.95 30.364 1637.65 30.468C1637.34 30.564 1637.06 30.676 1636.79 30.804L1636.47 30.012C1636.75 29.86 1637.08 29.732 1637.47 29.628C1637.85 29.516 1638.25 29.46 1638.67 29.46ZM1638.98 32.892C1638.18 32.924 1637.62 33.052 1637.31 33.276C1637.01 33.5 1636.85 33.816 1636.85 34.224C1636.85 34.584 1636.96 34.848 1637.18 35.016C1637.4 35.184 1637.69 35.268 1638.03 35.268C1638.57 35.268 1639.03 35.12 1639.39 34.824C1639.75 34.52 1639.93 34.056 1639.93 33.432V32.856L1638.98 32.892ZM1650.01 29.448C1650.74 29.448 1651.29 29.636 1651.65 30.012C1652.01 30.38 1652.19 30.98 1652.19 31.812V36H1651.14V31.86C1651.14 31.356 1651.03 30.976 1650.82 30.72C1650.61 30.464 1650.28 30.336 1649.83 30.336C1649.21 30.336 1648.76 30.516 1648.49 30.876C1648.23 31.236 1648.09 31.76 1648.09 32.448V36H1647.05V31.86C1647.05 31.524 1647 31.244 1646.91 31.02C1646.81 30.788 1646.67 30.616 1646.47 30.504C1646.28 30.392 1646.03 30.336 1645.73 30.336C1645.3 30.336 1644.96 30.428 1644.71 30.612C1644.46 30.788 1644.28 31.048 1644.17 31.392C1644.07 31.736 1644.01 32.16 1644.01 32.664V36H1642.96V29.568H1643.81L1643.97 30.444H1644.03C1644.16 30.22 1644.33 30.036 1644.52 29.892C1644.72 29.74 1644.94 29.628 1645.18 29.556C1645.42 29.484 1645.67 29.448 1645.92 29.448C1646.42 29.448 1646.83 29.536 1647.16 29.712C1647.49 29.888 1647.74 30.16 1647.89 30.528H1647.95C1648.17 30.16 1648.46 29.888 1648.83 29.712C1649.2 29.536 1649.6 29.448 1650.01 29.448Z" fill="#1E1D2D"/>
<path d="M1665.62 31.556C1665.62 32.6 1665.55 33.53 1665.39 34.346C1665.23 35.162 1664.98 35.858 1664.63 36.434C1664.3 36.998 1663.85 37.43 1663.3 37.73C1662.76 38.03 1662.11 38.18 1661.34 38.18C1660.38 38.18 1659.58 37.916 1658.95 37.388C1658.32 36.86 1657.85 36.104 1657.54 35.12C1657.24 34.124 1657.09 32.936 1657.09 31.556C1657.09 30.164 1657.23 28.976 1657.51 27.992C1657.79 27.008 1658.25 26.258 1658.87 25.742C1659.5 25.214 1660.32 24.95 1661.34 24.95C1662.3 24.95 1663.1 25.214 1663.73 25.742C1664.37 26.258 1664.84 27.008 1665.16 27.992C1665.47 28.976 1665.62 30.164 1665.62 31.556ZM1658.68 31.556C1658.68 32.732 1658.76 33.71 1658.93 34.49C1659.11 35.27 1659.39 35.858 1659.77 36.254C1660.17 36.638 1660.69 36.83 1661.34 36.83C1661.99 36.83 1662.5 36.638 1662.89 36.254C1663.28 35.87 1663.57 35.288 1663.75 34.508C1663.93 33.716 1664.02 32.732 1664.02 31.556C1664.02 30.38 1663.93 29.408 1663.75 28.64C1663.57 27.86 1663.28 27.278 1662.89 26.894C1662.5 26.498 1661.99 26.3 1661.34 26.3C1660.69 26.3 1660.17 26.498 1659.77 26.894C1659.39 27.278 1659.11 27.86 1658.93 28.64C1658.76 29.408 1658.68 30.38 1658.68 31.556ZM1667.5 32.51C1667.5 31.766 1667.55 31.034 1667.65 30.314C1667.75 29.594 1667.93 28.916 1668.19 28.28C1668.44 27.632 1668.79 27.062 1669.23 26.57C1669.67 26.066 1670.23 25.676 1670.9 25.4C1671.59 25.112 1672.42 24.968 1673.39 24.968C1673.64 24.968 1673.92 24.98 1674.22 25.004C1674.53 25.028 1674.78 25.07 1674.97 25.13V26.48C1674.76 26.408 1674.51 26.354 1674.23 26.318C1673.97 26.282 1673.7 26.264 1673.42 26.264C1672.6 26.264 1671.91 26.402 1671.35 26.678C1670.8 26.954 1670.36 27.332 1670.04 27.812C1669.73 28.292 1669.5 28.844 1669.36 29.468C1669.21 30.092 1669.12 30.758 1669.09 31.466H1669.19C1669.37 31.178 1669.6 30.92 1669.88 30.692C1670.15 30.464 1670.48 30.284 1670.87 30.152C1671.26 30.02 1671.72 29.954 1672.24 29.954C1672.98 29.954 1673.63 30.11 1674.18 30.422C1674.74 30.722 1675.18 31.166 1675.49 31.754C1675.81 32.33 1675.96 33.032 1675.96 33.86C1675.96 34.748 1675.79 35.516 1675.46 36.164C1675.12 36.812 1674.65 37.31 1674.04 37.658C1673.44 38.006 1672.72 38.18 1671.88 38.18C1671.26 38.18 1670.69 38.066 1670.17 37.838C1669.64 37.61 1669.17 37.262 1668.76 36.794C1668.37 36.326 1668.05 35.738 1667.83 35.03C1667.61 34.31 1667.5 33.47 1667.5 32.51ZM1671.86 36.848C1672.61 36.848 1673.23 36.608 1673.69 36.128C1674.16 35.636 1674.4 34.88 1674.4 33.86C1674.4 33.044 1674.19 32.396 1673.77 31.916C1673.36 31.436 1672.74 31.196 1671.91 31.196C1671.35 31.196 1670.86 31.316 1670.44 31.556C1670.02 31.784 1669.69 32.078 1669.45 32.438C1669.22 32.798 1669.1 33.17 1669.1 33.554C1669.1 33.95 1669.16 34.34 1669.27 34.724C1669.39 35.108 1669.56 35.462 1669.79 35.786C1670.03 36.11 1670.32 36.368 1670.65 36.56C1671 36.752 1671.4 36.848 1671.86 36.848ZM1678.11 37.028C1678.11 36.584 1678.22 36.272 1678.43 36.092C1678.65 35.912 1678.91 35.822 1679.21 35.822C1679.52 35.822 1679.78 35.912 1680 36.092C1680.23 36.272 1680.34 36.584 1680.34 37.028C1680.34 37.46 1680.23 37.772 1680 37.964C1679.78 38.156 1679.52 38.252 1679.21 38.252C1678.91 38.252 1678.65 38.156 1678.43 37.964C1678.22 37.772 1678.11 37.46 1678.11 37.028ZM1678.11 29.324C1678.11 28.868 1678.22 28.55 1678.43 28.37C1678.65 28.19 1678.91 28.1 1679.21 28.1C1679.52 28.1 1679.78 28.19 1680 28.37C1680.23 28.55 1680.34 28.868 1680.34 29.324C1680.34 29.756 1680.23 30.068 1680 30.26C1679.78 30.452 1679.52 30.548 1679.21 30.548C1678.91 30.548 1678.65 30.452 1678.43 30.26C1678.22 30.068 1678.11 29.756 1678.11 29.324ZM1690.99 38H1682.49V36.686L1685.86 33.284C1686.51 32.636 1687.05 32.06 1687.5 31.556C1687.94 31.052 1688.28 30.56 1688.5 30.08C1688.73 29.588 1688.85 29.054 1688.85 28.478C1688.85 27.77 1688.64 27.236 1688.22 26.876C1687.8 26.504 1687.25 26.318 1686.58 26.318C1685.95 26.318 1685.4 26.426 1684.92 26.642C1684.45 26.858 1683.97 27.158 1683.48 27.542L1682.64 26.48C1682.97 26.192 1683.34 25.934 1683.73 25.706C1684.14 25.478 1684.58 25.298 1685.05 25.166C1685.53 25.034 1686.04 24.968 1686.58 24.968C1687.38 24.968 1688.07 25.106 1688.65 25.382C1689.22 25.658 1689.67 26.054 1689.98 26.57C1690.3 27.074 1690.47 27.68 1690.47 28.388C1690.47 28.892 1690.39 29.372 1690.23 29.828C1690.08 30.272 1689.85 30.71 1689.57 31.142C1689.28 31.574 1688.93 32.012 1688.52 32.456C1688.11 32.9 1687.66 33.362 1687.17 33.842L1684.49 36.488V36.56H1690.99V38ZM1701.34 31.556C1701.34 32.6 1701.27 33.53 1701.11 34.346C1700.95 35.162 1700.7 35.858 1700.35 36.434C1700.02 36.998 1699.57 37.43 1699.02 37.73C1698.48 38.03 1697.83 38.18 1697.06 38.18C1696.1 38.18 1695.3 37.916 1694.67 37.388C1694.04 36.86 1693.57 36.104 1693.26 35.12C1692.96 34.124 1692.81 32.936 1692.81 31.556C1692.81 30.164 1692.95 28.976 1693.23 27.992C1693.51 27.008 1693.97 26.258 1694.59 25.742C1695.22 25.214 1696.04 24.95 1697.06 24.95C1698.02 24.95 1698.82 25.214 1699.45 25.742C1700.09 26.258 1700.56 27.008 1700.88 27.992C1701.19 28.976 1701.34 30.164 1701.34 31.556ZM1694.4 31.556C1694.4 32.732 1694.48 33.71 1694.65 34.49C1694.83 35.27 1695.11 35.858 1695.49 36.254C1695.89 36.638 1696.41 36.83 1697.06 36.83C1697.71 36.83 1698.22 36.638 1698.61 36.254C1699 35.87 1699.29 35.288 1699.47 34.508C1699.65 33.716 1699.74 32.732 1699.74 31.556C1699.74 30.38 1699.65 29.408 1699.47 28.64C1699.29 27.86 1699 27.278 1698.61 26.894C1698.22 26.498 1697.71 26.3 1697.06 26.3C1696.41 26.3 1695.89 26.498 1695.49 26.894C1695.11 27.278 1694.83 27.86 1694.65 28.64C1694.48 29.408 1694.4 30.38 1694.4 31.556Z" fill="#1E1D2D"/>
<g opacity="0.4">
<path fill-rule="evenodd" clip-rule="evenodd" d="M1513.08 35.875C1513.08 35.875 1513.08 36.8846 1512.36 37.5986C1512.36 37.5986 1511.65 38.3125 1510.64 38.3125H1494.39C1494.39 38.3125 1493.38 38.3125 1492.67 37.5986C1492.67 37.5986 1491.95 36.8846 1491.95 35.875V24.5C1491.95 24.5 1491.95 23.4904 1492.67 22.7764C1492.67 22.7764 1493.38 22.0625 1494.39 22.0625H1510.64C1510.64 22.0625 1511.65 22.0625 1512.36 22.7764C1512.36 22.7764 1513.08 23.4904 1513.08 24.5V35.875ZM1511.45 35.875V24.5C1511.45 24.5 1511.45 24.1635 1511.22 23.9255C1511.22 23.9255 1510.98 23.6875 1510.64 23.6875H1494.39C1494.39 23.6875 1494.05 23.6875 1493.82 23.9255C1493.82 23.9255 1493.58 24.1635 1493.58 24.5V35.875C1493.58 35.875 1493.58 36.2115 1493.82 36.4495C1493.82 36.4495 1494.05 36.6875 1494.39 36.6875H1510.64C1510.64 36.6875 1510.98 36.6875 1511.22 36.4495C1511.22 36.4495 1511.45 36.2115 1511.45 35.875Z" fill="#A6ACBE"/>
<path d="M1505.77 39.9375H1499.27C1498.82 39.9375 1498.45 40.3013 1498.45 40.75C1498.45 41.1987 1498.82 41.5625 1499.27 41.5625H1505.77C1506.21 41.5625 1506.58 41.1987 1506.58 40.75C1506.58 40.3013 1506.21 39.9375 1505.77 39.9375Z" fill="#A6ACBE"/>
</g>
<path d="M1544.38 28.5625V39.125C1544.38 39.5737 1544.75 39.9375 1545.2 39.9375C1545.64 39.9375 1546.01 39.5737 1546.01 39.125V28.5625C1546.01 28.1138 1545.64 27.75 1545.2 27.75C1544.75 27.75 1544.38 28.1138 1544.38 28.5625Z" fill="#55606E"/>
<path d="M1537.88 29.375H1557.38C1557.83 29.375 1558.2 29.0112 1558.2 28.5625C1558.2 28.1138 1557.83 27.75 1557.38 27.75H1537.88C1537.43 27.75 1537.07 28.1138 1537.07 28.5625C1537.07 29.0112 1537.43 29.375 1537.88 29.375Z" fill="#55606E"/>
<path fill-rule="evenodd" clip-rule="evenodd" d="M1537.07 23.6875C1537.07 23.6875 1537.07 23.0144 1537.55 22.5385C1537.55 22.5385 1538.02 22.0625 1538.7 22.0625H1556.57C1556.57 22.0625 1557.24 22.0625 1557.72 22.5385C1557.72 22.5385 1558.2 23.0144 1558.2 23.6875V38.3125C1558.2 38.3125 1558.2 38.9856 1557.72 39.4615C1557.72 39.4615 1557.24 39.9375 1556.57 39.9375H1538.7C1538.7 39.9375 1538.02 39.9375 1537.55 39.4615C1537.55 39.4615 1537.07 38.9856 1537.07 38.3125V23.6875ZM1538.7 23.6875V38.3125H1556.57V23.6875H1538.7Z" fill="#55606E"/>
<path fill-rule="evenodd" clip-rule="evenodd" d="M1582.24 30.1529V29.3948C1582.24 29.3948 1582.24 27.8829 1582.82 26.4852C1582.82 26.4852 1583.4 25.0876 1584.47 24.02C1584.47 24.02 1585.54 22.9524 1586.94 22.3788C1586.94 22.3788 1588.34 21.8051 1589.85 21.8136C1589.85 21.8136 1591.39 21.8252 1592.79 22.4398C1592.79 22.4398 1594.14 23.0311 1595.18 24.0969C1595.18 24.0969 1596.21 25.1585 1596.78 26.5274C1596.78 26.5274 1597.36 27.9419 1597.36 29.48V30.1529C1597.36 30.1529 1597.36 34.0853 1598.6 36.217C1598.6 36.217 1598.8 36.5691 1598.8 36.9746C1598.8 36.9746 1598.8 37.3802 1598.6 37.7318C1598.6 37.7318 1598.4 38.0833 1598.05 38.287C1598.05 38.287 1597.7 38.4908 1597.29 38.4922L1582.31 38.4922C1582.31 38.4922 1581.91 38.4908 1581.56 38.287C1581.56 38.287 1581.2 38.0833 1581 37.7318C1581 37.7318 1580.8 37.3802 1580.8 36.9746C1580.8 36.9746 1580.8 36.569 1581 36.2178C1581 36.2178 1582.24 34.0853 1582.24 30.1529ZM1583.76 30.1529C1583.76 30.1529 1583.76 34.4926 1582.32 36.976L1597.28 36.9759C1597.28 36.9759 1595.85 34.4919 1595.85 30.1529V29.48C1595.85 29.48 1595.85 26.9585 1594.09 25.1545C1594.09 25.1545 1592.33 23.3486 1589.84 23.3298C1589.84 23.3298 1588.63 23.3231 1587.51 23.7818C1587.51 23.7818 1586.39 24.2406 1585.54 25.0944C1585.54 25.0944 1584.68 25.9482 1584.22 27.066C1584.22 27.066 1583.75 28.1837 1583.76 29.3948V30.1529Z" fill="#55606E"/>
<path d="M1593.59 38.4923V37.7341C1593.59 37.3154 1593.25 36.976 1592.83 36.976C1592.41 36.976 1592.08 37.3154 1592.08 37.7341V38.4923C1592.08 39.4343 1591.41 40.1005 1591.41 40.1005C1590.74 40.7666 1589.8 40.7666 1589.8 40.7666C1588.86 40.7666 1588.19 40.1005 1588.19 40.1005C1587.53 39.4343 1587.53 38.4923 1587.53 38.4923V37.7341C1587.53 37.3154 1587.19 36.976 1586.77 36.976C1586.35 36.976 1586.01 37.3154 1586.01 37.7341V38.4923C1586.01 40.0624 1587.12 41.1726 1587.12 41.1726C1588.23 42.2829 1589.8 42.2829 1589.8 42.2829C1591.37 42.2829 1592.48 41.1726 1592.48 41.1726C1593.59 40.0624 1593.59 38.4923 1593.59 38.4923Z" fill="#55606E"/>
<path fill-rule="evenodd" clip-rule="evenodd" d="M1582.24 30.1529V29.3948C1582.24 29.3948 1582.24 27.8829 1582.82 26.4852C1582.82 26.4852 1583.4 25.0876 1584.47 24.02C1584.47 24.02 1585.54 22.9524 1586.94 22.3788C1586.94 22.3788 1588.34 21.8051 1589.85 21.8136C1589.85 21.8136 1591.39 21.8252 1592.79 22.4398C1592.79 22.4398 1594.14 23.0311 1595.18 24.0969C1595.18 24.0969 1596.21 25.1585 1596.78 26.5274C1596.78 26.5274 1597.36 27.9419 1597.36 29.48V30.1529C1597.36 30.1529 1597.36 34.0853 1598.6 36.217C1598.6 36.217 1598.8 36.5691 1598.8 36.9746C1598.8 36.9746 1598.8 37.3802 1598.6 37.7318C1598.6 37.7318 1598.4 38.0833 1598.05 38.287C1598.05 38.287 1597.7 38.4908 1597.29 38.4922L1582.31 38.4922C1582.31 38.4922 1581.91 38.4908 1581.56 38.287C1581.56 38.287 1581.2 38.0833 1581 37.7318C1581 37.7318 1580.8 37.3802 1580.8 36.9746C1580.8 36.9746 1580.8 36.569 1581 36.2178C1581 36.2178 1582.24 34.0853 1582.24 30.1529ZM1583.76 30.1529C1583.76 30.1529 1583.76 34.4926 1582.32 36.976L1597.28 36.9759C1597.28 36.9759 1595.85 34.4919 1595.85 30.1529V29.48C1595.85 29.48 1595.85 26.9585 1594.09 25.1545C1594.09 25.1545 1592.33 23.3486 1589.84 23.3298C1589.84 23.3298 1588.63 23.3231 1587.51 23.7818C1587.51 23.7818 1586.39 24.2406 1585.54 25.0944C1585.54 25.0944 1584.68 25.9482 1584.22 27.066C1584.22 27.066 1583.75 28.1837 1583.76 29.3948V30.1529Z" stroke="#55606E" stroke-width="0.1"/>
<path d="M1593.59 38.4923V37.7341C1593.59 37.3154 1593.25 36.976 1592.83 36.976C1592.41 36.976 1592.08 37.3154 1592.08 37.7341V38.4923C1592.08 39.4343 1591.41 40.1005 1591.41 40.1005C1590.74 40.7666 1589.8 40.7666 1589.8 40.7666C1588.86 40.7666 1588.19 40.1005 1588.19 40.1005C1587.53 39.4343 1587.53 38.4923 1587.53 38.4923V37.7341C1587.53 37.3154 1587.19 36.976 1586.77 36.976C1586.35 36.976 1586.01 37.3154 1586.01 37.7341V38.4923C1586.01 40.0624 1587.12 41.1726 1587.12 41.1726C1588.23 42.2829 1589.8 42.2829 1589.8 42.2829C1591.37 42.2829 1592.48 41.1726 1592.48 41.1726C1593.59 40.0624 1593.59 38.4923 1593.59 38.4923Z" stroke="#55606E" stroke-width="0.1"/>
<circle cx="1596.66" cy="24.3243" r="4.26965" fill="#3C82F6" stroke="white" stroke-width="2.5"/>
</g>
<defs>
<filter id="filter0_d_713_1255" x="0" y="-1" width="1930" height="71" filterUnits="userSpaceOnUse" color-interpolation-filters="sRGB">
<feFlood flood-opacity="0" result="BackgroundImageFix"/>
<feColorMatrix in="SourceAlpha" type="matrix" values="0 0 0 0 0 0 0 0 0 0 0 0 0 0 0 0 0 0 127 0" result="hardAlpha"/>
<feOffset dy="4"/>
<feGaussianBlur stdDeviation="2.5"/>
<feComposite in2="hardAlpha" operator="out"/>
<feColorMatrix type="matrix" values="0 0 0 0 0 0 0 0 0 0 0 0 0 0 0 0 0 0 0.05 0"/>
<feBlend mode="normal" in2="BackgroundImageFix" result="effect1_dropShadow_713_1255"/>
<feBlend mode="normal" in="SourceGraphic" in2="effect1_dropShadow_713_1255" result="shape"/>
</filter>
</defs>
</svg>
