<svg width="250" height="1080" viewBox="0 0 250 1080" fill="none" xmlns="http://www.w3.org/2000/svg">
<rect width="250" height="1080" fill="url(#paint0_linear_712_1160)"/>
<path d="M55.1054 171.938C55.0898 174.484 56.1836 177.062 58.4648 178.156L57.2617 179.75C55.7383 179 54.7148 177.594 54.1211 175.875C53.5039 177.719 52.4023 179.227 50.7929 180.016L49.5586 178.406C51.9648 177.297 53.1054 174.578 53.1054 171.938V169.812H55.1054V171.938ZM61.0898 168.719V174.203H63.1836V175.891H61.0898V182.938H59.0898V168.719H61.0898ZM67.6679 169.328C69.4883 169.312 70.9336 170.352 71.3242 171.875H73.6992V168.719H75.6836V176.359H73.6992V173.469H71.3398C70.9648 175.031 69.5039 176.094 67.6679 176.094C65.4804 176.094 63.8711 174.672 63.8867 172.688C63.8711 170.734 65.4804 169.312 67.6679 169.328ZM67.6679 170.984C66.5586 170.969 65.7617 171.625 65.7773 172.688C65.7617 173.75 66.5586 174.422 67.6679 174.422C68.7461 174.422 69.5273 173.75 69.5273 172.688C69.5273 171.625 68.7461 170.969 67.6679 170.984ZM68.1679 176.984V178.359H73.6992V176.984H75.6836V182.781H66.1992V176.984H68.1679ZM68.1679 181.172H73.6992V179.891H68.1679V181.172ZM87.6211 177.578C90.7304 177.578 92.6836 178.562 92.6992 180.266C92.6836 181.938 90.7304 182.938 87.6211 182.938C84.5429 182.938 82.5586 181.938 82.5586 180.266C82.5586 178.562 84.5429 177.578 87.6211 177.578ZM87.6211 179.062C85.6679 179.062 84.5429 179.469 84.5429 180.266C84.5429 181.031 85.6679 181.422 87.6211 181.422C89.5742 181.422 90.7148 181.031 90.7148 180.266C90.7148 179.469 89.5742 179.062 87.6211 179.062ZM92.6211 169.359V170.516C92.6211 171.641 92.6211 172.859 92.2148 174.328L90.2617 174.141C90.5742 172.852 90.6133 171.891 90.6367 170.922H82.6992V169.359H92.6211ZM94.1523 175.062V176.672H81.2461V175.062H86.0898V172.578H88.0586V175.062H94.1523ZM106.762 169.953V171.297C106.762 173.078 106.762 175.078 106.184 178.094L104.184 177.891C104.723 175.203 104.746 173.203 104.762 171.531H96.3867V169.953H106.762ZM108.012 179.578V181.203H95.0429V179.578H99.6836V174.688H101.668V179.578H108.012Z" fill="#8DA4BF"/>
<rect x="29" y="170" width="5.52049" height="5.51999" rx="1" fill="#8DA4BF"/>
<rect x="35.4805" y="170" width="5.52049" height="5.51999" rx="1" fill="#8DA4BF"/>
<rect x="29" y="176.48" width="5.52049" height="5.51999" rx="1" fill="#8DA4BF"/>
<rect x="35.4805" y="176.48" width="5.52049" height="5.51999" rx="1" fill="#8DA4BF"/>
<path d="M221.659 171.393L226.84 176L221.659 180.607" stroke="#8DA4BF" stroke-width="1.4" stroke-linecap="round" stroke-linejoin="round"/>
<path d="M57.8398 209.75V210.641C57.8398 211.625 57.8398 213.047 57.5117 214.812L55.5586 214.625C55.8086 213.258 55.8711 212.227 55.8867 211.375H50.5273V209.75H57.8398ZM54.3086 213.031V215.75C55.7226 215.695 57.1758 215.586 58.5117 215.391L58.6211 216.828C55.6679 217.375 52.3242 217.422 49.8554 217.438L49.6836 215.844C50.4804 215.844 51.3789 215.844 52.3242 215.812V213.031H54.3086ZM61.3242 208.719V213.047H63.0429V214.719H61.3242V219.359H59.2773V208.719H61.3242ZM61.7617 221.094V222.688H51.7773V218.406H53.7773V221.094H61.7617ZM75.6054 208.734V216.75H73.6054V208.734H75.6054ZM75.6054 217.406V222.781H66.0742V217.406H75.6054ZM68.0429 218.984V221.188H73.6523V218.984H68.0429ZM69.1523 210.625C69.1367 212.359 70.1836 214 72.4804 214.719L71.5117 216.234C69.8867 215.758 68.7617 214.773 68.1211 213.5C67.4726 214.883 66.3164 215.977 64.6211 216.5L63.6523 214.938C66.0273 214.219 67.0742 212.406 67.0742 210.625V209.25H69.1523V210.625ZM87.2773 210.188V213.891H88.6992V208.922H90.5742V222.281H88.6992V215.484H87.2773V219.359H81.6211V210.188H87.2773ZM83.4804 211.766V217.797H85.4179V211.766H83.4804ZM93.5429 208.719V222.938H91.6367V208.719H93.5429ZM106.574 213.203V214.797H96.6211V209.359H98.6054V213.203H106.574ZM108.012 216.406V218H105.043V222.938H103.027V218H100.043V222.938H98.0429V218H95.0429V216.406H108.012Z" fill="#8DA4BF"/>
<path d="M35 210.5L36.6995 214.12L40.5 214.705L37.75 217.521L38.399 221.5L35 219.62L31.601 221.5L32.25 217.521L29.5 214.705L33.3005 214.12L35 210.5Z" fill="#8DA4BF" stroke="#8DA4BF" stroke-linecap="round" stroke-linejoin="round"/>
<path d="M221.659 211.393L226.84 216L221.659 220.607" stroke="#8DA4BF" stroke-width="1.4" stroke-linecap="round" stroke-linejoin="round"/>
<path d="M56.9219 249.797C56.9219 253.766 55.2188 256.469 50.4219 258L49.6562 256.469C51.6875 255.812 52.9922 255 53.7812 254.016L49.9375 254.328L49.6562 252.75L54.5625 252.578C54.6875 252.211 54.7734 251.812 54.8125 251.406H50.375V249.797H56.9219ZM61.4062 248.734V259.219H59.4219V254.641H56.8438V253.031H59.4219V248.734H61.4062ZM61.7656 261.094V262.688H52.0469V258.203H54.0625V261.094H61.7656ZM76.2656 259.641V261.234H63.25V259.641H68.6875V256.422H70.6719V259.641H76.2656ZM70.7344 250.547C70.7344 252.578 72.5625 254.719 75.8125 255.219L74.9688 256.875C72.4688 256.422 70.6094 255.086 69.6719 253.312C68.7344 255.078 66.8906 256.43 64.4062 256.875L63.5625 255.219C66.7812 254.719 68.5938 252.562 68.6094 250.547V249.531H70.7344V250.547ZM82.6094 251.938C82.6094 254.547 83.7969 257.172 86.2031 258.188L85.0312 259.781C83.4062 259.047 82.2812 257.633 81.6406 255.875C80.9922 257.789 79.8281 259.336 78.0938 260.125L76.8906 258.469C79.375 257.422 80.5781 254.703 80.5938 251.938V249.812H82.6094V251.938ZM88.9844 248.719V262.969H86.9688V248.719H88.9844ZM94.875 249.469C96.6953 249.469 98.1406 250.516 98.5312 252.094H100.906V248.719H102.891V256.781H100.906V253.703H98.5469C98.1875 255.297 96.7188 256.391 94.875 256.375C92.7188 256.391 91.0781 254.938 91.0938 252.938C91.0781 250.922 92.7188 249.469 94.875 249.469ZM94.875 251.141C93.7812 251.125 92.9688 251.812 92.9844 252.938C92.9688 254.047 93.7812 254.703 94.875 254.703C95.9375 254.703 96.7344 254.047 96.7344 252.938C96.7344 251.812 95.9375 251.125 94.875 251.141ZM102.891 257.406V262.781H93.3281V257.406H102.891ZM95.3281 258.984V261.188H100.938V258.984H95.3281ZM120.75 248.719V262.938H118.844V255.766H117.562V262.281H115.672V248.922H117.562V254.141H118.844V248.719H120.75ZM114.484 250.188V259.359H108.828V250.188H114.484ZM110.688 251.766V257.797H112.625V251.766H110.688ZM130.688 250.203V251.781H127.781C127.828 253.227 128.922 254.703 131.203 255.297L130.281 256.828C128.641 256.406 127.484 255.492 126.828 254.312C126.188 255.625 125.023 256.664 123.328 257.141L122.375 255.594C124.641 254.969 125.711 253.367 125.766 251.781H122.859V250.203H125.766V248.734H127.797V250.203H130.688ZM134.156 248.734V257.312H132.156V248.734H134.156ZM129.312 257.531C132.328 257.531 134.188 258.531 134.203 260.234C134.188 261.953 132.328 262.938 129.312 262.938C126.281 262.938 124.422 261.953 124.422 260.234C124.422 258.531 126.281 257.531 129.312 257.531ZM129.312 259.078C127.406 259.078 126.422 259.469 126.422 260.234C126.422 261.016 127.406 261.422 129.312 261.422C131.219 261.422 132.234 261.016 132.234 260.234C132.234 259.469 131.219 259.078 129.312 259.078Z" fill="#8DA4BF"/>
<path d="M38.5 256.583V260.083C38.5 260.393 38.3771 260.689 38.1583 260.908C37.9395 261.127 37.6428 261.25 37.3333 261.25H30.9167C30.6072 261.25 30.3105 261.127 30.0917 260.908C29.8729 260.689 29.75 260.393 29.75 260.083V253.667C29.75 253.357 29.8729 253.061 30.0917 252.842C30.3105 252.623 30.6072 252.5 30.9167 252.5H34.4167M36.75 250.75H40.25M40.25 250.75V254.25M40.25 250.75L33.8333 257.167" stroke="#8DA4BF" stroke-width="1.5" stroke-linecap="round" stroke-linejoin="round"/>
<path d="M221.659 251.393L226.84 256L221.659 260.607" stroke="#8DA4BF" stroke-width="1.4" stroke-linecap="round" stroke-linejoin="round"/>
<path d="M54.6562 291.938C54.6406 294.484 55.7344 297.062 58.0156 298.156L56.8125 299.75C55.2891 299 54.2656 297.594 53.6719 295.875C53.0547 297.719 51.9531 299.227 50.3438 300.016L49.1094 298.406C51.5156 297.297 52.6562 294.578 52.6562 291.938V289.812H54.6562V291.938ZM60.6406 288.719V294.203H62.7344V295.891H60.6406V302.938H58.6406V288.719H60.6406ZM76.2188 295.453V297.047H63.25V295.453H66.1719V293.75C65.1328 293.289 64.5469 292.586 64.5469 291.672C64.5469 289.953 66.5625 288.922 69.7344 288.922C72.875 288.922 74.8906 289.953 74.9062 291.672C74.8984 292.594 74.2891 293.312 73.2344 293.766V295.453H76.2188ZM69.7188 297.797C72.7969 297.797 74.6562 298.703 74.6719 300.344C74.6562 302.016 72.7969 302.922 69.7188 302.922C66.5938 302.922 64.7344 302.016 64.7344 300.344C64.7344 298.703 66.5938 297.797 69.7188 297.797ZM69.7188 299.297C67.75 299.297 66.75 299.641 66.7656 300.344C66.75 301.078 67.75 301.438 69.7188 301.438C71.6406 301.438 72.6562 301.078 72.6719 300.344C72.6562 299.641 71.6406 299.297 69.7188 299.297ZM69.7344 290.453C67.7188 290.453 66.6094 290.875 66.625 291.672C66.6094 292.453 67.7188 292.844 69.7344 292.844C71.7188 292.844 72.8438 292.453 72.8438 291.672C72.8438 290.875 71.7188 290.453 69.7344 290.453ZM68.1875 295.453H71.25V294.266C70.7812 294.32 70.2734 294.344 69.7344 294.344C69.1797 294.344 68.6641 294.32 68.1875 294.25V295.453ZM82.3281 292.594C82.3125 294.766 83.4688 297.266 85.8125 298.344L84.7031 299.906C83.1172 299.18 81.9844 297.727 81.3594 296.016C80.7188 297.898 79.5547 299.492 77.9062 300.266L76.75 298.688C79.125 297.578 80.3125 294.938 80.3281 292.594V291.719H77.3125V290.094H85.1875V291.719H82.3281V292.594ZM88.2969 288.719V294.141H90.3906V295.812H88.2969V302.938H86.2969V288.719H88.2969ZM102.562 289.75V290.641C102.562 291.625 102.562 293.047 102.234 294.812L100.281 294.625C100.531 293.258 100.594 292.227 100.609 291.375H95.25V289.75H102.562ZM99.0312 293.031V295.75C100.445 295.695 101.898 295.586 103.234 295.391L103.344 296.828C100.391 297.375 97.0469 297.422 94.5781 297.438L94.4062 295.844C95.2031 295.844 96.1016 295.844 97.0469 295.812V293.031H99.0312ZM106.047 288.719V293.047H107.766V294.719H106.047V299.359H104V288.719H106.047ZM106.484 301.094V302.688H96.5V298.406H98.5V301.094H106.484ZM120.344 288.719V302.969H118.359V288.719H120.344ZM115.938 289.906V295.391H111.25V298C113.414 297.992 115.258 297.867 117.344 297.531L117.516 299.141C115.172 299.547 113.062 299.641 110.469 299.641H109.188V293.812H113.906V291.516H109.172V289.906H115.938Z" fill="white"/>
<circle cx="35.0489" cy="293.168" r="3.168" fill="white"/>
<path d="M38.76 297.957C39.7535 298.748 41 299.802 41 300.922C41 301.672 40.2402 302 39.9091 302H30.6364C29.1463 302 29 301.234 29 300.922C29 299.802 30.2739 298.748 31.2675 297.957C32.2611 297.165 33.6086 296.72 35.0137 296.72C36.4188 296.72 37.7664 297.165 38.76 297.957Z" fill="white"/>
<path d="M221.659 291.393L226.84 296L221.659 300.607" stroke="white" stroke-width="1.4" stroke-linecap="round" stroke-linejoin="round"/>
<path d="M54.9531 331.938C54.9531 334.547 56.1406 337.172 58.5469 338.188L57.375 339.781C55.75 339.047 54.625 337.633 53.9844 335.875C53.3359 337.789 52.1719 339.336 50.4375 340.125L49.2344 338.469C51.7188 337.422 52.9219 334.703 52.9375 331.938V329.812H54.9531V331.938ZM61.3281 328.719V342.969H59.3125V328.719H61.3281ZM70.7344 330.594C70.7344 332.672 72.5781 334.906 75.7969 335.453L74.9219 337.109C72.4453 336.617 70.6016 335.227 69.6875 333.391C68.7422 335.211 66.8984 336.609 64.4375 337.109L63.5781 335.453C66.7344 334.891 68.5938 332.656 68.6094 330.594V329.562H70.7344V330.594ZM76.2656 339.547V341.188H63.25V339.547H76.2656ZM83.0625 329.562V331.172H79.5469V332.297H82.5312V333.828H79.5469V335.062C81.1016 335.039 82.2344 334.977 83.5469 334.766L83.75 336.312C82.1094 336.594 80.75 336.641 78.6094 336.641H77.6406V329.562H83.0625ZM89.2969 328.719V337.203H87.4062V328.719H89.2969ZM86.4688 328.938V337.109H84.5781V333.734H83.1406V332.141H84.5781V328.938H86.4688ZM89.2969 337.766V342.781H79.5938V337.766H89.2969ZM81.5781 339.328V341.188H87.3281V339.328H81.5781ZM102.562 329.75V330.641C102.562 331.625 102.562 333.047 102.234 334.812L100.281 334.625C100.531 333.258 100.594 332.227 100.609 331.375H95.25V329.75H102.562ZM99.0312 333.031V335.75C100.445 335.695 101.898 335.586 103.234 335.391L103.344 336.828C100.391 337.375 97.0469 337.422 94.5781 337.438L94.4062 335.844C95.2031 335.844 96.1016 335.844 97.0469 335.812V333.031H99.0312ZM106.047 328.719V333.047H107.766V334.719H106.047V339.359H104V328.719H106.047ZM106.484 341.094V342.688H96.5V338.406H98.5V341.094H106.484ZM120.344 328.719V342.969H118.359V328.719H120.344ZM115.938 329.906V335.391H111.25V338C113.414 337.992 115.258 337.867 117.344 337.531L117.516 339.141C115.172 339.547 113.062 339.641 110.469 339.641H109.188V333.812H113.906V331.516H109.172V329.906H115.938Z" fill="#8DA4BF"/>
<path d="M40.5 336.488C40.5 336.716 40.3462 336.915 40.126 336.973L39.1729 337.22L38.8359 338.033L39.3818 338.677C39.5499 338.875 39.5374 339.17 39.3535 339.354L38.3535 340.354C38.1892 340.518 37.9379 340.544 37.7451 340.43L37.666 340.372L37.6641 340.371C37.6629 340.37 37.6614 340.368 37.6592 340.366C37.6545 340.362 37.6476 340.356 37.6387 340.348C37.6208 340.332 37.5943 340.309 37.5625 340.28C37.4988 340.224 37.4119 340.147 37.3184 340.065C37.2238 339.983 37.1287 339.901 37.0459 339.832L36.2246 340.172L35.9844 341.123C35.9281 341.345 35.7287 341.5 35.5 341.5H34.5C34.271 341.5 34.0717 341.344 34.0156 341.122L33.7754 340.173L32.9805 339.846L32.3154 340.388C32.1166 340.549 31.8278 340.535 31.6465 340.354L30.6465 339.354C30.4591 339.166 30.4506 338.865 30.627 338.667L31.1738 338.053L30.835 337.246L29.8682 336.982C29.6508 336.923 29.5 336.725 29.5 336.5V335.5C29.5 335.268 29.6604 335.066 29.8867 335.013L30.8203 334.795L31.1514 333.979L30.6123 333.315C30.4507 333.117 30.4653 332.828 30.6465 332.646L31.6465 331.646L31.7217 331.585C31.9073 331.46 32.1589 331.472 32.332 331.626L32.9482 332.174L33.7529 331.835L34.0068 330.873C34.0646 330.653 34.2632 330.5 34.4902 330.5H35.4678L35.5518 330.507C35.7426 330.539 35.9007 330.681 35.9512 330.873L36.1992 331.817L37.0391 332.162L37.6748 331.62L37.7539 331.564C37.9459 331.456 38.1921 331.485 38.3535 331.646L39.3535 332.646C39.5373 332.83 39.5497 333.125 39.3818 333.323L38.8408 333.962L39.1768 334.774L40.123 335.016C40.3447 335.072 40.5 335.271 40.5 335.5V336.488Z" fill="#8DA4BF" stroke="#8DA4BF" stroke-linejoin="round"/>
<path d="M37.5604 335.98C37.5604 337.405 36.4053 338.56 34.9804 338.56C33.5555 338.56 32.4004 337.405 32.4004 335.98C32.4004 334.555 33.5555 333.4 34.9804 333.4C36.4053 333.4 37.5604 334.555 37.5604 335.98Z" fill="#0C1232"/>
<path d="M221.659 331.393L226.84 336L221.659 340.607" stroke="#8DA4BF" stroke-width="1.4" stroke-linecap="round" stroke-linejoin="round"/>
<path d="M30.528 122.636C31.44 122.636 32.228 122.808 32.892 123.152C33.564 123.488 34.076 123.972 34.428 124.604C34.788 125.236 34.968 125.98 34.968 126.836C34.968 127.692 34.788 128.436 34.428 129.068C34.076 129.692 33.564 130.172 32.892 130.508C32.228 130.836 31.44 131 30.528 131H27.924V122.636H30.528ZM30.528 130.1C31.608 130.1 32.432 129.816 33 129.248C33.568 128.672 33.852 127.868 33.852 126.836C33.852 125.796 33.564 124.984 32.988 124.4C32.42 123.816 31.6 123.524 30.528 123.524H29.016V130.1H30.528ZM36.0004 127.688C36.0004 127.016 36.1364 126.428 36.4084 125.924C36.6804 125.412 37.0524 125.016 37.5244 124.736C38.0044 124.456 38.5364 124.316 39.1204 124.316C39.6964 124.316 40.1964 124.44 40.6204 124.688C41.0444 124.936 41.3604 125.248 41.5684 125.624V124.424H42.6724V131H41.5684V129.776C41.3524 130.16 41.0284 130.48 40.5964 130.736C40.1724 130.984 39.6764 131.108 39.1084 131.108C38.5244 131.108 37.9964 130.964 37.5244 130.676C37.0524 130.388 36.6804 129.984 36.4084 129.464C36.1364 128.944 36.0004 128.352 36.0004 127.688ZM41.5684 127.7C41.5684 127.204 41.4684 126.772 41.2684 126.404C41.0684 126.036 40.7964 125.756 40.4524 125.564C40.1164 125.364 39.7444 125.264 39.3364 125.264C38.9284 125.264 38.5564 125.36 38.2204 125.552C37.8844 125.744 37.6164 126.024 37.4164 126.392C37.2164 126.76 37.1164 127.192 37.1164 127.688C37.1164 128.192 37.2164 128.632 37.4164 129.008C37.6164 129.376 37.8844 129.66 38.2204 129.86C38.5564 130.052 38.9284 130.148 39.3364 130.148C39.7444 130.148 40.1164 130.052 40.4524 129.86C40.7964 129.66 41.0684 129.376 41.2684 129.008C41.4684 128.632 41.5684 128.196 41.5684 127.7ZM46.8458 131.108C46.3418 131.108 45.8898 131.024 45.4898 130.856C45.0898 130.68 44.7738 130.44 44.5418 130.136C44.3098 129.824 44.1818 129.468 44.1578 129.068H45.2858C45.3178 129.396 45.4698 129.664 45.7418 129.872C46.0218 130.08 46.3858 130.184 46.8338 130.184C47.2498 130.184 47.5778 130.092 47.8178 129.908C48.0578 129.724 48.1778 129.492 48.1778 129.212C48.1778 128.924 48.0498 128.712 47.7938 128.576C47.5378 128.432 47.1418 128.292 46.6058 128.156C46.1178 128.028 45.7178 127.9 45.4058 127.772C45.1018 127.636 44.8378 127.44 44.6138 127.184C44.3978 126.92 44.2898 126.576 44.2898 126.152C44.2898 125.816 44.3898 125.508 44.5898 125.228C44.7898 124.948 45.0738 124.728 45.4418 124.568C45.8098 124.4 46.2298 124.316 46.7018 124.316C47.4298 124.316 48.0178 124.5 48.4658 124.868C48.9138 125.236 49.1538 125.74 49.1858 126.38H48.0938C48.0698 126.036 47.9298 125.76 47.6738 125.552C47.4258 125.344 47.0898 125.24 46.6658 125.24C46.2738 125.24 45.9618 125.324 45.7298 125.492C45.4978 125.66 45.3818 125.88 45.3818 126.152C45.3818 126.368 45.4498 126.548 45.5858 126.692C45.7298 126.828 45.9058 126.94 46.1138 127.028C46.3298 127.108 46.6258 127.2 47.0018 127.304C47.4738 127.432 47.8578 127.56 48.1538 127.688C48.4498 127.808 48.7018 127.992 48.9098 128.24C49.1258 128.488 49.2378 128.812 49.2458 129.212C49.2458 129.572 49.1458 129.896 48.9458 130.184C48.7458 130.472 48.4618 130.7 48.0938 130.868C47.7338 131.028 47.3178 131.108 46.8458 131.108ZM54.0513 124.304C54.5473 124.304 54.9953 124.412 55.3953 124.628C55.7953 124.836 56.1073 125.152 56.3313 125.576C56.5633 126 56.6793 126.516 56.6793 127.124V131H55.5993V127.28C55.5993 126.624 55.4353 126.124 55.1073 125.78C54.7793 125.428 54.3313 125.252 53.7633 125.252C53.1873 125.252 52.7273 125.432 52.3833 125.792C52.0473 126.152 51.8793 126.676 51.8793 127.364V131H50.7873V122.12H51.8793V125.36C52.0953 125.024 52.3913 124.764 52.7673 124.58C53.1513 124.396 53.5793 124.304 54.0513 124.304ZM59.5551 125.648C59.7791 125.256 60.1071 124.936 60.5391 124.688C60.9711 124.44 61.4631 124.316 62.0151 124.316C62.6071 124.316 63.1391 124.456 63.6111 124.736C64.0831 125.016 64.4551 125.412 64.7271 125.924C64.9991 126.428 65.1351 127.016 65.1351 127.688C65.1351 128.352 64.9991 128.944 64.7271 129.464C64.4551 129.984 64.0791 130.388 63.5991 130.676C63.1271 130.964 62.5991 131.108 62.0151 131.108C61.4471 131.108 60.9471 130.984 60.5151 130.736C60.0911 130.488 59.7711 130.172 59.5551 129.788V131H58.4631V122.12H59.5551V125.648ZM64.0191 127.688C64.0191 127.192 63.9191 126.76 63.7191 126.392C63.5191 126.024 63.2471 125.744 62.9031 125.552C62.5671 125.36 62.1951 125.264 61.7871 125.264C61.3871 125.264 61.0151 125.364 60.6711 125.564C60.3351 125.756 60.0631 126.04 59.8551 126.416C59.6551 126.784 59.5551 127.212 59.5551 127.7C59.5551 128.196 59.6551 128.632 59.8551 129.008C60.0631 129.376 60.3351 129.66 60.6711 129.86C61.0151 130.052 61.3871 130.148 61.7871 130.148C62.1951 130.148 62.5671 130.052 62.9031 129.86C63.2471 129.66 63.5191 129.376 63.7191 129.008C63.9191 128.632 64.0191 128.192 64.0191 127.688ZM69.4404 131.108C68.8244 131.108 68.2644 130.968 67.7604 130.688C67.2644 130.408 66.8724 130.012 66.5844 129.5C66.3044 128.98 66.1644 128.38 66.1644 127.7C66.1644 127.028 66.3084 126.436 66.5964 125.924C66.8924 125.404 67.2924 125.008 67.7964 124.736C68.3004 124.456 68.8644 124.316 69.4884 124.316C70.1124 124.316 70.6764 124.456 71.1804 124.736C71.6844 125.008 72.0804 125.4 72.3684 125.912C72.6644 126.424 72.8124 127.02 72.8124 127.7C72.8124 128.38 72.6604 128.98 72.3564 129.5C72.0604 130.012 71.6564 130.408 71.1444 130.688C70.6324 130.968 70.0644 131.108 69.4404 131.108ZM69.4404 130.148C69.8324 130.148 70.2004 130.056 70.5444 129.872C70.8884 129.688 71.1644 129.412 71.3724 129.044C71.5884 128.676 71.6964 128.228 71.6964 127.7C71.6964 127.172 71.5924 126.724 71.3844 126.356C71.1764 125.988 70.9044 125.716 70.5684 125.54C70.2324 125.356 69.8684 125.264 69.4764 125.264C69.0764 125.264 68.7084 125.356 68.3724 125.54C68.0444 125.716 67.7804 125.988 67.5804 126.356C67.3804 126.724 67.2804 127.172 67.2804 127.7C67.2804 128.236 67.3764 128.688 67.5684 129.056C67.7684 129.424 68.0324 129.7 68.3604 129.884C68.6884 130.06 69.0484 130.148 69.4404 130.148ZM73.8402 127.688C73.8402 127.016 73.9762 126.428 74.2482 125.924C74.5202 125.412 74.8922 125.016 75.3642 124.736C75.8442 124.456 76.3762 124.316 76.9602 124.316C77.5362 124.316 78.0362 124.44 78.4602 124.688C78.8842 124.936 79.2002 125.248 79.4082 125.624V124.424H80.5122V131H79.4082V129.776C79.1922 130.16 78.8682 130.48 78.4362 130.736C78.0122 130.984 77.5162 131.108 76.9482 131.108C76.3642 131.108 75.8362 130.964 75.3642 130.676C74.8922 130.388 74.5202 129.984 74.2482 129.464C73.9762 128.944 73.8402 128.352 73.8402 127.688ZM79.4082 127.7C79.4082 127.204 79.3082 126.772 79.1082 126.404C78.9082 126.036 78.6362 125.756 78.2922 125.564C77.9562 125.364 77.5842 125.264 77.1762 125.264C76.7682 125.264 76.3962 125.36 76.0602 125.552C75.7242 125.744 75.4562 126.024 75.2562 126.392C75.0562 126.76 74.9562 127.192 74.9562 127.688C74.9562 128.192 75.0562 128.632 75.2562 129.008C75.4562 129.376 75.7242 129.66 76.0602 129.86C76.3962 130.052 76.7682 130.148 77.1762 130.148C77.5842 130.148 77.9562 130.052 78.2922 129.86C78.6362 129.66 78.9082 129.376 79.1082 129.008C79.3082 128.632 79.4082 128.196 79.4082 127.7ZM83.4496 125.492C83.6416 125.116 83.9136 124.824 84.2656 124.616C84.6256 124.408 85.0616 124.304 85.5736 124.304V125.432H85.2856C84.0616 125.432 83.4496 126.096 83.4496 127.424V131H82.3576V124.424H83.4496V125.492ZM86.4262 127.688C86.4262 127.016 86.5622 126.428 86.8342 125.924C87.1062 125.412 87.4782 125.016 87.9502 124.736C88.4302 124.456 88.9662 124.316 89.5582 124.316C90.0702 124.316 90.5462 124.436 90.9862 124.676C91.4262 124.908 91.7622 125.216 91.9942 125.6V122.12H93.0982V131H91.9942V129.764C91.7782 130.156 91.4582 130.48 91.0342 130.736C90.6102 130.984 90.1142 131.108 89.5462 131.108C88.9622 131.108 88.4302 130.964 87.9502 130.676C87.4782 130.388 87.1062 129.984 86.8342 129.464C86.5622 128.944 86.4262 128.352 86.4262 127.688ZM91.9942 127.7C91.9942 127.204 91.8942 126.772 91.6942 126.404C91.4942 126.036 91.2222 125.756 90.8782 125.564C90.5422 125.364 90.1702 125.264 89.7622 125.264C89.3542 125.264 88.9822 125.36 88.6462 125.552C88.3102 125.744 88.0422 126.024 87.8422 126.392C87.6422 126.76 87.5422 127.192 87.5422 127.688C87.5422 128.192 87.6422 128.632 87.8422 129.008C88.0422 129.376 88.3102 129.66 88.6462 129.86C88.9822 130.052 89.3542 130.148 89.7622 130.148C90.1702 130.148 90.5422 130.052 90.8782 129.86C91.2222 129.66 91.4942 129.376 91.6942 129.008C91.8942 128.632 91.9942 128.196 91.9942 127.7Z" fill="#8DA4BF"/>
<path d="M32.328 436.5L30.336 433.08H29.016V436.5H27.924V428.136H30.624C31.256 428.136 31.788 428.244 32.22 428.46C32.66 428.676 32.988 428.968 33.204 429.336C33.42 429.704 33.528 430.124 33.528 430.596C33.528 431.172 33.36 431.68 33.024 432.12C32.696 432.56 32.2 432.852 31.536 432.996L33.636 436.5H32.328ZM29.016 432.204H30.624C31.216 432.204 31.66 432.06 31.956 431.772C32.252 431.476 32.4 431.084 32.4 430.596C32.4 430.1 32.252 429.716 31.956 429.444C31.668 429.172 31.224 429.036 30.624 429.036H29.016V432.204ZM41.2248 432.96C41.2248 433.168 41.2128 433.388 41.1888 433.62H35.9328C35.9728 434.268 36.1928 434.776 36.5928 435.144C37.0008 435.504 37.4928 435.684 38.0688 435.684C38.5408 435.684 38.9328 435.576 39.2448 435.36C39.5648 435.136 39.7888 434.84 39.9168 434.472H41.0928C40.9168 435.104 40.5648 435.62 40.0368 436.02C39.5088 436.412 38.8528 436.608 38.0688 436.608C37.4448 436.608 36.8848 436.468 36.3888 436.188C35.9008 435.908 35.5168 435.512 35.2368 435C34.9568 434.48 34.8168 433.88 34.8168 433.2C34.8168 432.52 34.9528 431.924 35.2248 431.412C35.4968 430.9 35.8768 430.508 36.3648 430.236C36.8608 429.956 37.4288 429.816 38.0688 429.816C38.6928 429.816 39.2448 429.952 39.7248 430.224C40.2048 430.496 40.5728 430.872 40.8288 431.352C41.0928 431.824 41.2248 432.36 41.2248 432.96ZM40.0968 432.732C40.0968 432.316 40.0048 431.96 39.8208 431.664C39.6368 431.36 39.3848 431.132 39.0648 430.98C38.7528 430.82 38.4048 430.74 38.0208 430.74C37.4688 430.74 36.9968 430.916 36.6048 431.268C36.2208 431.62 36.0008 432.108 35.9448 432.732H40.0968ZM44.9942 436.608C44.4902 436.608 44.0382 436.524 43.6382 436.356C43.2382 436.18 42.9222 435.94 42.6902 435.636C42.4582 435.324 42.3302 434.968 42.3062 434.568H43.4342C43.4662 434.896 43.6182 435.164 43.8902 435.372C44.1702 435.58 44.5342 435.684 44.9822 435.684C45.3982 435.684 45.7262 435.592 45.9662 435.408C46.2062 435.224 46.3262 434.992 46.3262 434.712C46.3262 434.424 46.1982 434.212 45.9422 434.076C45.6862 433.932 45.2902 433.792 44.7542 433.656C44.2662 433.528 43.8662 433.4 43.5542 433.272C43.2502 433.136 42.9862 432.94 42.7622 432.684C42.5462 432.42 42.4382 432.076 42.4382 431.652C42.4382 431.316 42.5382 431.008 42.7382 430.728C42.9382 430.448 43.2222 430.228 43.5902 430.068C43.9582 429.9 44.3782 429.816 44.8502 429.816C45.5782 429.816 46.1662 430 46.6142 430.368C47.0622 430.736 47.3022 431.24 47.3342 431.88H46.2422C46.2182 431.536 46.0782 431.26 45.8222 431.052C45.5742 430.844 45.2382 430.74 44.8142 430.74C44.4222 430.74 44.1102 430.824 43.8782 430.992C43.6462 431.16 43.5302 431.38 43.5302 431.652C43.5302 431.868 43.5982 432.048 43.7342 432.192C43.8782 432.328 44.0542 432.44 44.2622 432.528C44.4782 432.608 44.7742 432.7 45.1502 432.804C45.6222 432.932 46.0062 433.06 46.3022 433.188C46.5982 433.308 46.8502 433.492 47.0582 433.74C47.2742 433.988 47.3862 434.312 47.3942 434.712C47.3942 435.072 47.2942 435.396 47.0942 435.684C46.8942 435.972 46.6102 436.2 46.2422 436.368C45.8822 436.528 45.4662 436.608 44.9942 436.608ZM51.8037 436.608C51.1877 436.608 50.6277 436.468 50.1237 436.188C49.6277 435.908 49.2357 435.512 48.9477 435C48.6677 434.48 48.5277 433.88 48.5277 433.2C48.5277 432.528 48.6717 431.936 48.9597 431.424C49.2557 430.904 49.6557 430.508 50.1597 430.236C50.6637 429.956 51.2277 429.816 51.8517 429.816C52.4757 429.816 53.0397 429.956 53.5437 430.236C54.0477 430.508 54.4437 430.9 54.7317 431.412C55.0277 431.924 55.1757 432.52 55.1757 433.2C55.1757 433.88 55.0237 434.48 54.7197 435C54.4237 435.512 54.0197 435.908 53.5077 436.188C52.9957 436.468 52.4277 436.608 51.8037 436.608ZM51.8037 435.648C52.1957 435.648 52.5637 435.556 52.9077 435.372C53.2517 435.188 53.5277 434.912 53.7357 434.544C53.9517 434.176 54.0597 433.728 54.0597 433.2C54.0597 432.672 53.9557 432.224 53.7477 431.856C53.5397 431.488 53.2677 431.216 52.9317 431.04C52.5957 430.856 52.2317 430.764 51.8397 430.764C51.4397 430.764 51.0717 430.856 50.7357 431.04C50.4077 431.216 50.1437 431.488 49.9437 431.856C49.7437 432.224 49.6437 432.672 49.6437 433.2C49.6437 433.736 49.7397 434.188 49.9317 434.556C50.1317 434.924 50.3957 435.2 50.7237 435.384C51.0517 435.56 51.4117 435.648 51.8037 435.648ZM62.4435 429.924V436.5H61.3515V435.528C61.1435 435.864 60.8515 436.128 60.4755 436.32C60.1075 436.504 59.6995 436.596 59.2515 436.596C58.7395 436.596 58.2795 436.492 57.8715 436.284C57.4635 436.068 57.1395 435.748 56.8995 435.324C56.6675 434.9 56.5515 434.384 56.5515 433.776V429.924H57.6315V433.632C57.6315 434.28 57.7955 434.78 58.1235 435.132C58.4515 435.476 58.8995 435.648 59.4675 435.648C60.0515 435.648 60.5115 435.468 60.8475 435.108C61.1835 434.748 61.3515 434.224 61.3515 433.536V429.924H62.4435ZM65.3793 430.992C65.5713 430.616 65.8433 430.324 66.1953 430.116C66.5553 429.908 66.9913 429.804 67.5033 429.804V430.932H67.2153C65.9913 430.932 65.3793 431.596 65.3793 432.924V436.5H64.2873V429.924H65.3793V430.992ZM68.3558 433.2C68.3558 432.52 68.4918 431.928 68.7638 431.424C69.0358 430.912 69.4118 430.516 69.8918 430.236C70.3798 429.956 70.9358 429.816 71.5598 429.816C72.3678 429.816 73.0318 430.012 73.5518 430.404C74.0798 430.796 74.4278 431.34 74.5958 432.036H73.4198C73.3078 431.636 73.0878 431.32 72.7598 431.088C72.4398 430.856 72.0398 430.74 71.5598 430.74C70.9358 430.74 70.4318 430.956 70.0478 431.388C69.6638 431.812 69.4718 432.416 69.4718 433.2C69.4718 433.992 69.6638 434.604 70.0478 435.036C70.4318 435.468 70.9358 435.684 71.5598 435.684C72.0398 435.684 72.4398 435.572 72.7598 435.348C73.0798 435.124 73.2998 434.804 73.4198 434.388H74.5958C74.4198 435.06 74.0678 435.6 73.5398 436.008C73.0118 436.408 72.3518 436.608 71.5598 436.608C70.9358 436.608 70.3798 436.468 69.8918 436.188C69.4118 435.908 69.0358 435.512 68.7638 435C68.4918 434.488 68.3558 433.888 68.3558 433.2ZM82.0529 432.96C82.0529 433.168 82.0409 433.388 82.0169 433.62H76.7609C76.8009 434.268 77.0209 434.776 77.4209 435.144C77.8289 435.504 78.3209 435.684 78.8969 435.684C79.3689 435.684 79.7609 435.576 80.0729 435.36C80.3929 435.136 80.6169 434.84 80.7449 434.472H81.9209C81.7449 435.104 81.3929 435.62 80.8649 436.02C80.3369 436.412 79.6809 436.608 78.8969 436.608C78.2729 436.608 77.7129 436.468 77.2169 436.188C76.7289 435.908 76.3449 435.512 76.0649 435C75.7849 434.48 75.6449 433.88 75.6449 433.2C75.6449 432.52 75.7809 431.924 76.0529 431.412C76.3249 430.9 76.7049 430.508 77.1929 430.236C77.6889 429.956 78.2569 429.816 78.8969 429.816C79.5209 429.816 80.0729 429.952 80.5529 430.224C81.0329 430.496 81.4009 430.872 81.6569 431.352C81.9209 431.824 82.0529 432.36 82.0529 432.96ZM80.9249 432.732C80.9249 432.316 80.8329 431.96 80.6489 431.664C80.4649 431.36 80.2129 431.132 79.8929 430.98C79.5809 430.82 79.2329 430.74 78.8489 430.74C78.2969 430.74 77.8249 430.916 77.4329 431.268C77.0489 431.62 76.8289 432.108 76.7729 432.732H80.9249ZM85.8223 436.608C85.3183 436.608 84.8663 436.524 84.4663 436.356C84.0663 436.18 83.7503 435.94 83.5183 435.636C83.2863 435.324 83.1583 434.968 83.1343 434.568H84.2623C84.2943 434.896 84.4463 435.164 84.7183 435.372C84.9983 435.58 85.3623 435.684 85.8103 435.684C86.2263 435.684 86.5543 435.592 86.7943 435.408C87.0343 435.224 87.1543 434.992 87.1543 434.712C87.1543 434.424 87.0263 434.212 86.7703 434.076C86.5143 433.932 86.1183 433.792 85.5823 433.656C85.0943 433.528 84.6943 433.4 84.3823 433.272C84.0783 433.136 83.8143 432.94 83.5903 432.684C83.3743 432.42 83.2663 432.076 83.2663 431.652C83.2663 431.316 83.3663 431.008 83.5663 430.728C83.7663 430.448 84.0503 430.228 84.4183 430.068C84.7863 429.9 85.2063 429.816 85.6783 429.816C86.4063 429.816 86.9943 430 87.4423 430.368C87.8903 430.736 88.1303 431.24 88.1623 431.88H87.0703C87.0463 431.536 86.9063 431.26 86.6503 431.052C86.4023 430.844 86.0663 430.74 85.6423 430.74C85.2503 430.74 84.9383 430.824 84.7063 430.992C84.4743 431.16 84.3583 431.38 84.3583 431.652C84.3583 431.868 84.4263 432.048 84.5623 432.192C84.7063 432.328 84.8823 432.44 85.0903 432.528C85.3063 432.608 85.6023 432.7 85.9783 432.804C86.4503 432.932 86.8343 433.06 87.1303 433.188C87.4263 433.308 87.6783 433.492 87.8863 433.74C88.1023 433.988 88.2143 434.312 88.2223 434.712C88.2223 435.072 88.1223 435.396 87.9223 435.684C87.7223 435.972 87.4383 436.2 87.0703 436.368C86.7103 436.528 86.2943 436.608 85.8223 436.608Z" fill="#8DA4BF"/>
<path d="M61.4054 468.219V475.375H59.4211V474.281H56.1711V472.766H59.4211V471.516H56.3273C55.4445 473.656 53.4132 475.023 50.2648 475.703L49.5929 474.078C52.8507 473.43 54.3586 472.086 54.6242 470.375H50.3898V468.766H56.8273C56.8273 469.195 56.7961 469.609 56.7336 470H59.4211V468.219H61.4054ZM61.4054 475.891V479.781H53.9679V480.719H61.7179V482.297H51.9679V478.312H59.4054V477.453H51.9523V475.891H61.4054ZM75.5461 468.219V482.438H73.6554V468.219H75.5461ZM72.6398 468.453V481.781H70.7648V474.703H68.8898V473.094H70.7648V468.453H72.6398ZM67.7492 472.031C67.7492 474.391 68.4836 476.781 70.5617 477.969L69.3898 479.438C68.1242 478.688 67.2882 477.414 66.8117 475.891C66.3195 477.547 65.4601 478.953 64.1554 479.75L62.9523 478.281C65.0461 477 65.8273 474.438 65.8273 472.031V471.266H63.4992V469.672H69.9054V471.266H67.7492V472.031ZM82.4523 469.156L78.7961 482.703H76.8117L80.4523 469.156H82.4523ZM94.4679 469.047V470.328C94.4679 471.656 94.4679 473.109 94.1086 475.094H95.9836V476.703H90.4367V482.453H88.4367V476.703H83.0148V475.094H92.0929C92.4523 473.258 92.4836 471.867 92.4836 470.641H84.4992V469.047H94.4679ZM109.812 475.109V476.688H96.8429V475.109H102.327V473.844H98.4211V468.781H108.28V470.359H100.405V472.234H108.421V473.844H104.327V475.109H109.812ZM108.265 477.672V482.484H106.312V479.25H98.2804V477.672H108.265ZM122.327 469.25V470.141C122.327 471.125 122.327 472.547 121.999 474.312L120.046 474.125C120.296 472.758 120.359 471.727 120.374 470.875H115.015V469.25H122.327ZM118.796 472.531V475.25C120.21 475.195 121.663 475.086 122.999 474.891L123.109 476.328C120.155 476.875 116.812 476.922 114.343 476.938L114.171 475.344C114.968 475.344 115.866 475.344 116.812 475.312V472.531H118.796ZM125.812 468.219V472.547H127.53V474.219H125.812V478.859H123.765V468.219H125.812ZM126.249 480.594V482.188H116.265V477.906H118.265V480.594H126.249ZM140.109 468.219V482.469H138.124V468.219H140.109ZM135.702 469.406V474.891H131.015V477.5C133.179 477.492 135.023 477.367 137.109 477.031L137.28 478.641C134.937 479.047 132.827 479.141 130.234 479.141H128.952V473.312H133.671V471.016H128.937V469.406H135.702Z" fill="#8DA4BF"/>
<g clip-path="url(#clip0_712_1160)">
<path d="M28.9992 474.375H41.3742M30.1242 471H40.2492C40.8705 471 41.3742 471.504 41.3742 472.125V478.875C41.3742 479.496 40.8705 480 40.2492 480H30.1242C29.5029 480 28.9992 479.496 28.9992 478.875V472.125C28.9992 471.504 29.5029 471 30.1242 471Z" stroke="#8DA4BF" stroke-width="1.5" stroke-linecap="round" stroke-linejoin="round"/>
</g>
<path d="M221.658 471.393L226.839 476L221.658 480.607" stroke="#8DA4BF" stroke-width="1.4" stroke-linecap="round" stroke-linejoin="round"/>
<path d="M167.169 59.0101H162.967L161.317 71.0001H157.335L158.985 59.0101H154.783L155.311 55.4021H167.697L167.169 59.0101Z" fill="white"/>
<path d="M153.793 55.4241L151.615 71.0001H147.677L149.855 55.4241H153.793Z" fill="white"/>
<path d="M142.076 71.0001L138.908 66.0501H138.204L137.522 71.0001H133.54L135.718 55.4241H141.944C145.156 55.4241 147.444 57.1401 147.004 60.7921C146.608 63.6741 145.376 64.6421 143.242 65.6541L146.982 71.0001H142.076ZM138.688 62.6621H140.998C142.208 62.6621 142.912 61.7601 143.022 60.8581C143.132 59.9121 142.67 59.0981 141.504 59.0981H139.194L138.688 62.6621Z" fill="white"/>
<path d="M126.238 59.1421L125.908 61.4521H132.222L131.738 64.9501H125.424L125.094 67.2821H131.958L131.452 71.0001H120.606L122.784 55.4241H133.63L133.102 59.1421H126.238Z" fill="white"/>
<path d="M105.739 71.0001L107.917 55.4241H111.657L114.495 62.0681L115.375 65.1921L115.463 65.1701L115.419 62.4861L116.409 55.4241H120.325L118.147 71.0001H114.165L111.503 64.8621L110.579 61.7381L110.491 61.7601L110.535 64.7741L109.677 71.0001H105.739Z" fill="white"/>
<path d="M105.874 59.0101H101.672L100.022 71.0001H96.04L97.69 59.0101H93.488L94.016 55.4021H106.402L105.874 59.0101Z" fill="white"/>
<path d="M87.5056 71.0001L84.3376 66.0501H83.6336L82.9516 71.0001H78.9696L81.1476 55.4241H87.3736C90.5856 55.4241 92.8736 57.1401 92.4336 60.7921C92.0376 63.6741 90.8056 64.6421 88.6716 65.6541L92.4116 71.0001H87.5056ZM84.1176 62.6621H86.4276C87.6376 62.6621 88.3416 61.7601 88.4516 60.8581C88.5616 59.9121 88.0996 59.0981 86.9336 59.0981H84.6236L84.1176 62.6621Z" fill="white"/>
<path d="M74.5589 55.4241L77.9469 71.0001H73.7229L73.1289 67.8761H68.9709L67.5849 71.0001H63.3609L70.9729 55.4241H74.5589ZM70.3569 64.3781H72.6889L72.2269 59.8241H72.0729L70.3569 64.3781Z" fill="white"/>
<path d="M52.286 71.0001L54.464 55.4241H60.69C64.496 55.4241 65.926 58.2181 65.618 61.0341C65.288 63.9821 63.11 66.4461 59.348 66.4461H56.862L56.224 71.0001H52.286ZM57.346 62.9481H59.634C60.866 62.9701 61.57 61.9801 61.702 60.9241C61.834 59.8901 61.328 59.0981 60.184 59.0981H57.896L57.346 62.9481Z" fill="white"/>
<path d="M44.5688 53.9423C45.7775 55.1521 45.967 56.5802 45.6994 57.8023C45.4464 58.9582 44.7924 59.94 44.254 60.5229L41.1172 64.4203L39.4218 63.0559L42.6079 59.0972L42.6368 59.0666C42.9886 58.6929 43.4208 58.0344 43.5735 57.3369C43.7083 56.7214 43.6316 56.0987 43.0536 55.505L42.9961 55.4477C42.5364 55.0023 42.1288 54.8198 41.7883 54.7584C41.4426 54.6961 41.0783 54.743 40.6875 54.8959C39.8684 55.2163 39.073 55.9475 38.4697 56.6646L38.3667 56.7883C37.3656 58.0014 34.3863 61.8714 32.4411 64.4141L31.6543 65.4438L31.6518 65.4471L31.6492 65.4505L30.1972 67.3236C29.9864 67.6134 29.6521 68.2571 29.5871 68.9143C29.5295 69.4958 29.6699 70.0396 30.361 70.4794C31.0787 70.9362 31.8028 70.9132 32.5949 70.5402C33.4065 70.158 34.218 69.4283 34.9114 68.5858L34.9782 68.504C35.7128 67.594 36.4094 66.7295 36.9502 66.0575L38.6455 67.422C38.104 68.0948 37.4067 68.9601 36.6715 69.8709L36.5947 69.9651C35.7924 70.9405 34.7379 71.9365 33.5221 72.5091C32.2215 73.1215 30.6809 73.2626 29.1925 72.3153C27.6776 71.3511 27.2996 69.9307 27.4214 68.7C27.5353 67.5499 28.0738 66.5382 28.4479 66.0288L28.4562 66.0175L28.4649 66.0064L29.9241 64.124L30.7058 63.1007C32.6462 60.5644 35.6601 56.6485 36.6974 55.392L36.8044 55.2636C37.4879 54.4512 38.5685 53.388 39.8948 52.8692C40.5767 52.6025 41.3526 52.4686 42.1742 52.6167C43.001 52.7657 43.7881 53.1849 44.5104 53.8848L44.5688 53.9423Z" fill="white"/>
<path d="M26.1708 59.2526C27.1949 57.8732 28.4934 57.3978 29.7259 57.4906C30.8707 57.5767 31.8466 58.1408 32.4228 58.6342L32.8695 58.9829L31.53 60.698L31.0421 60.3171L31.0201 60.2978C30.6947 60.0143 30.1331 59.7037 29.5626 59.6607C29.0965 59.6256 28.5225 59.7541 27.9435 60.5161L27.8875 60.5918C27.0691 61.7269 27.1538 62.4967 27.3703 63.0133C27.6122 63.5905 28.1089 64.0526 28.5185 64.3568L28.5991 64.4156L28.6063 64.4207L28.6136 64.4261L34.006 68.4106L40.28 72.5201C40.7959 72.7819 41.8884 72.9701 42.6805 72.0417L42.7311 71.9808C43.2377 71.355 43.243 70.828 43.1335 70.4161C43.0096 69.9499 42.7132 69.5725 42.5513 69.4169L42.5208 69.3887C42.1084 69.0257 37.0767 65.0846 34.5677 63.1253L35.9071 61.4101C38.3627 63.3278 43.4823 67.3359 43.9585 67.7551L43.9969 67.7895C44.3996 68.1571 44.9799 68.8907 45.2368 69.8569C45.5167 70.9098 45.3912 72.1818 44.3847 73.3963L44.3361 73.4541C42.5734 75.5202 40.1592 74.9289 39.2126 74.4179L39.172 74.3959L39.1334 74.3706L32.7886 70.2146L32.7628 70.1977L27.3203 66.1763C26.7928 65.7979 25.854 65.0256 25.3632 63.8545C24.8264 62.5736 24.9039 61.0088 26.1222 59.3191L26.1708 59.2526Z" fill="white"/>
<defs>
<linearGradient id="paint0_linear_712_1160" x1="125" y1="0" x2="125" y2="1080" gradientUnits="userSpaceOnUse">
<stop stop-color="#0C1232"/>
<stop offset="1" stop-color="#0B1131"/>
</linearGradient>
<clipPath id="clip0_712_1160">
<rect width="16" height="16" fill="white" transform="translate(26.9992 467.5)"/>
</clipPath>
</defs>
</svg>
